<svg version="1.1" xmlns="http://www.w3.org/2000/svg" xmlns:xlink="http://www.w3.org/1999/xlink" width="308.30853" height="165.64307" viewBox="0,0,308.30853,165.64307"><g transform="translate(-57.96219,-107.4828)"><g data-paper-data="{&quot;isPaintingLayer&quot;:true}" fill-rule="nonzero" stroke="none" stroke-width="0.5" stroke-linecap="butt" stroke-linejoin="miter" stroke-miterlimit="10" stroke-dasharray="" stroke-dashoffset="0" style="mix-blend-mode: normal"><path d="M317.65273,158.42151c-0.69606,0.40603 -1.39211,0.81206 -2.08817,1.2181c1.95123,2.15462 3.82303,4.35551 5.08765,7.28621c1.07101,2.48199 2.18041,5.35428 3.05091,8.18291c-0.22868,6.67897 2.73884,12.11899 3.99752,18.18902c0.02127,1.63149 -0.07162,3.2726 -0.07921,4.8519c-0.01592,3.31614 -1.1333,5.77736 -1.35479,9.00176c-0.03877,0.56444 -0.18863,1.74828 0.1025,2.02257c-0.15951,0.8236 -0.31206,1.75049 -0.44932,2.8242c-0.06885,0.53859 -0.04765,1.29242 0.03258,2.10892c-0.0945,-0.02591 -0.18833,-0.05469 -0.28144,-0.08617c-0.26562,4.2466 -0.97537,8.48597 -2.8318,11.89347c-2.62126,4.81134 -5.97221,9.43877 -8.67655,14.17317c-1.89715,3.32126 -1.15869,3.80935 -3.32617,6.56089c-1.25342,1.59117 -2.85952,2.92895 -3.87211,4.68324c-1.71656,2.9739 -3.00174,5.84276 -4.97182,8.70049c-6.82218,4.01993 -14.63087,6.76028 -22.05049,9.54408l-0.66285,0.34679c0,0 -1.30658,0.65329 -2.4216,-0.03765l-0.71888,0.20539c-2.84042,0.81099 -5.96491,2.29132 -8.86562,2.77315c-5.93705,0.98619 -11.18345,-1.07946 -16.91931,-1.78779c-0.76184,-0.09408 -5.52311,0.12515 -6.40496,-0.01025c-3.57552,-0.549 -6.82047,-2.65541 -10.38545,-3.16078c-1.82289,-0.25841 -3.68217,0.02416 -5.52328,0.02416c-6.24785,-0.01362 -12.19107,-2.57111 -18.02592,-4.6707c-0.8556,-0.30788 -1.53384,-1.04673 -2.41627,-1.26621c-1.90559,-0.47398 -3.98796,-0.27187 -5.80081,-1.0265c-3.05793,-1.27291 -4.47917,-3.73588 -7.37083,-5.03307c-1.38281,-0.62033 -2.90652,-0.87427 -4.31332,-1.43811c-0.88444,-0.35448 -6.33353,-2.71969 -7.56815,-3.93552c-2.70568,-2.66449 -1.72849,-5.31873 -5.0773,-4.75539c0,0 -2.33857,0 -2.4921,-2.26181c-1.33573,-0.03655 -2.68327,-0.49537 -3.85923,-1.31727c-5.52827,-3.86386 -4.75294,-9.62818 -7.54342,-14.81166c-1.02104,-1.89663 -3.7674,-4.12044 -5.29192,-5.67608c-3.83476,-7.83811 -0.78307,-17.04271 -1.80235,-25.49824c-0.21433,-1.77794 -1.57162,-3.22983 -2.13779,-4.92879c-0.68228,-2.0474 -1.14522,-4.17197 -1.46642,-6.30603c-0.91082,-6.05152 0.48318,-12.48846 1.34651,-18.35731c0.49851,-3.38883 0.0323,-5.98585 0.9906,-9.42292c0.99138,-2.9394 1.06915,-6.01624 2.36376,-8.86085c2.58692,-5.68416 6.64328,-10.27186 10.16359,-15.30764c4.95265,-7.08473 11.52148,-14.87073 20.33326,-17.23287c1.75508,-0.47047 3.61644,-0.35779 5.42466,-0.53668c0,0 0.86574,-0.0787 1.62261,0.36722c0.38202,-0.22169 0.70664,-0.30284 0.70664,-0.30284c6.9672,-1.73804 12.91168,-6.14918 20.07369,-7.26702c4.02957,-0.62893 8.35192,0.29178 12.41484,-0.02599c7.2436,-0.56655 14.50206,-1.08105 21.56914,0.35817c-0.09459,-0.10237 -0.17767,-0.20462 -0.25026,-0.30642l0.24839,0.14194l0.36011,-0.20577c0.19145,0.12166 0.39329,0.22841 0.6039,0.31864l0.02589,0.12942l0.46071,0.29319l0.35539,0.41462l0.32449,0.01802l0.23759,0.1512l0.18581,0.15927l0.36364,0.18182l0.14022,0.03116l0.05283,0.01761l0.0404,0.00311l0.11427,0.0254l0.01591,0.01363l0.29743,0.14871l0.02369,0.04145l0.11842,0.0296l0.10592,0.05296l0.7576,0.16836l0.52637,0.33496l0.11235,0.03745l0.10467,0.0628l0.04605,-0.01256l0.00966,0.00322l0.16616,0.01278l0.14703,0.07842l0.06874,0.01718l0.01886,0.03301l0.11842,0.02961l0.10592,0.05296l0.10625,0.02361l0.21817,0.11637l0.36364,0.09091h0.16908l0.10171,0.0226l0.10166,0.0363l0.01899,-0.0095l0.51013,0.11337l0.21353,0.05338l0.19683,0.09841l0.17604,0.03912l0.1462,0.10559l0.29041,0.11616l0.38734,0.19367l0.38843,0.08632l0.34466,0.19884l0.35,0.1l0.54603,0.24268l0.02871,0.00503l0.02321,0.01764l0.18128,0.0777l0.00424,0.00741l0.03137,0.00785l0.41948,0.17977l0.68205,0.11001l0.27909,0.16102l0.50407,0.14402l1.14316,0.40827l0.14001,0.01377l0.12186,0.0703l0.63637,0.18182l0.12962,0.00432l0.11599,0.058l0.2668,0.05929c0.43441,-1.7649 2.41652,-1.7649 2.41652,-1.7649c5.4558,0.09011 9.97456,-3.74224 15.50366,-4.23783c6.75705,-0.60566 13.26518,2.08456 19.63801,3.82158c1.88803,0.51461 3.80401,0.48172 5.5767,1.48323c2.38782,1.34904 4.23849,3.49229 6.49736,5.04763c0.86411,0.59498 5.1173,3.1294 5.83428,4.2045c0.69463,1.04158 0.78233,2.37857 1.17349,3.56786c0.03724,4.02337 0.90895,7.44031 1.2664,11.38852c0.44559,4.92168 -0.99392,9.79945 -0.9899,14.72451l-0.76393,2.11803c0,0 -0.31107,0.62213 -0.9332,1.046c-0.10475,0.15732 -0.18435,0.24687 -0.18435,0.24687l-2,2.25c0,0 -0.10426,0.11729 -0.28992,0.26698c-0.18337,0.15249 -0.31892,0.23156 -0.31892,0.23156zM316.52453,152.35116c0,0 0.2329,-0.26201 0.62238,-0.50259c0.08161,-4.61571 1.42571,-9.27166 1.00625,-13.86199c-0.35056,-3.83636 -1.28233,-7.18179 -1.2336,-11.11148c-0.74046,-3.24777 -6.66112,-5.5011 -9.09082,-7.41293c-2.58463,-2.03375 -3.16254,-1.92024 -6.32735,-2.78386c-5.70861,-1.55776 -11.80473,-4.23906 -17.86199,-3.67842c-4.32681,0.40048 -7.91343,2.58181 -11.91504,3.65973l0.2333,0.23913l0.28247,0.47078l0.36364,0.36364l0.36298,0.21778l0.28474,0.31323l0.27273,0.18182l0.53459,0.19093l0.47891,0.30476l0.54546,0.18182l0.31649,0.02434l0.12682,0.1087l0.36364,0.18182l0.02453,0.00545l0.57045,0.41199l0.42373,0.16949l0.02772,0.01664l0.01157,-0.00316l0.07934,0.01082l0.13538,0.11604l0.11561,0.05781l0.02369,0.04144l0.11842,0.02961l0.10592,0.05296l0.20454,0.04546l0.1591,0.13636l0.18181,0.09091l0.29862,0.06636l0.25807,0.16423l0.15425,0.05141l0.17446,0.06979l0.20552,0.10276l0.34773,0.07727l0.0159,0.01364l0.21765,0.10882l0.31458,0.18876l0.3732,0.11358l0.32113,0.22147l0.60895,0.22835l0.7027,0.31231l0.02872,0.00503l0.02321,0.01765l0.63637,0.27272l0.01091,0.00176l0.12395,0.08263l0.14685,0.05245l0.03496,0.03846l0.27273,0.18182l0.06133,0.0219l0.12275,0.06138l0.07098,0.01577l0.32448,0.32448l0.13637,0.22727l0.72727,0.72727l0.36298,0.21779l0.28475,0.31322l0.54546,0.36364l0.25291,0.09033l0.20391,0.17477l0.90909,0.45454l0.34772,0.07728l0.01591,0.01363l1.74545,0.87273l0.00459,0.00394l0.0545,0.0545l0.03027,0.01816l0.16518,0.14159l0.18182,0.0909l0.0643,0.0143l0.00706,0.00424l0.36995,0.36995l0.42142,0.25285l0.64153,0.40095l0.43644,0.29096l0.5806,0.41472l0.06546,0.02578l0.04733,0.05206l0.85926,0.57284l0.51775,0.45303l0.4469,0.22917l0.34654,0.57757l0.54546,0.54546l0.1429,0.08574l0.09645,0.1359l0.59733,0.512l1.6969,1.52721l1.32371,1.32371l0.92759,0.99384c0.31751,0.91107 0.64434,1.81868 1.09855,2.65897c0.1335,0.24698 0.26872,0.48799 0.40575,0.72368l0.00562,0.0253l0.36363,0.72727l0.17478,0.20391l0.09033,0.25292l0.18182,0.27272l0.17308,0.15735l0.00874,0.02447l0.36364,0.54546l0.19283,0.1753l0.11655,0.23308l0.77466,0.90377c1.03134,1.27126 2.15849,2.46996 3.40528,3.77121c0.08625,0.2452 0.17467,0.49085 0.26542,0.73658c-0.01091,0.10566 -0.02062,0.21353 -0.02909,0.32363c-0.13972,1.81629 2.13766,5.54259 4.68026,7.98278c0.8308,-0.48463 1.6616,-0.96926 2.49239,-1.4539zM304.25,154.75c0,-0.65938 0.17391,-1.14485 0.43,-1.50227c-0.62018,-1.27855 -1.14614,-2.59607 -1.55301,-3.9048c-2.67826,-2.50324 -4.64357,-4.99108 -6.38646,-8.23905c-1.0424,-1.94258 -1.32196,-4.27629 -2.56842,-6.09468c-1.76234,-2.57099 -6.15856,-4.48394 -8.72118,-6.06127c-5.99802,-3.69186 -11.95528,-7.2137 -18.56366,-9.73887c-4.74501,-1.81314 -9.63952,-3.16508 -14.39519,-4.94709c-7.68383,-2.58187 -15.84842,-1.82134 -23.8232,-1.21758c-3.90757,0.29583 -8.10252,-0.60925 -11.96837,-0.026c-6.96174,1.05034 -12.84262,5.47397 -19.66193,7.18229c0,0 -1.09847,0.27462 -2.00171,-0.28503c-0.55184,0.30071 -1.08753,0.34941 -1.08753,0.34941c-10.09018,0.81989 -16.61136,7.80613 -22.10543,15.64449c-3.3579,4.79068 -7.17862,9.11674 -9.70422,14.49408c-1.20909,2.57431 -1.25781,5.58786 -2.15165,8.29771c-0.93885,3.18719 -0.36427,5.39321 -0.81557,8.63872c-0.55343,3.98004 -1.51998,8.30889 -1.62031,12.53988c0.27331,-0.84179 0.59557,-1.65991 1.05366,-2.41439c1.44329,-2.37712 3.20381,-3.16125 5.38385,-4.48825c0,0 2.14373,-1.28624 3.42997,0.8575c1.28624,2.14373 -0.85749,3.42997 -0.85749,3.42997c-3.9339,2.31749 -4.01555,4.68537 -5.76149,8.77497l-1.97572,1.79802c0.95692,2.54875 2.21364,4.96606 2.60523,7.70741c0.71374,4.99664 0.02417,10.63102 0.02417,15.69915c0,2.85752 -0.44003,5.03129 0.88272,7.56904c1.70016,1.65846 4.41825,4.01679 5.54506,6.06399c1.21651,2.21017 1.57069,4.7962 2.44386,7.16312c0.80688,2.18724 1.85317,4.43161 3.55895,6.02076c0.47156,0.43931 1.79417,0.95029 1.90749,0.31584c0.12054,-0.67489 -0.38028,-1.33825 -0.36708,-2.02369c0.01916,-0.99423 0.8385,-5.21256 0.90308,-6.32157c0.34438,-5.91382 -0.00629,-11.95545 -0.00629,-17.88442c0,-3.94987 -0.78429,-7.86132 2.02032,-11.18098c0.71707,-0.84876 1.87051,-1.19982 2.80577,-1.79973c0.75257,-0.45154 1.50513,-0.90309 2.2577,-1.35462l2.48606,-0.73316c0,0 2.42536,-0.60634 3.0317,1.81902c0.60634,2.42535 -1.81902,3.03169 -1.81902,3.03169l-1.12626,0.16992c-0.75257,0.45154 -1.50514,0.90309 -2.25771,1.35462c-3.52907,1.87743 -2.39857,5.07762 -2.39857,8.69325c0,7.14943 0.53427,14.49945 -0.47666,21.57599c-0.33108,2.31755 0.56748,5.07644 -0.63255,7.03368c0.57837,0.01928 1.13681,0.10953 1.64712,0.37117c2.62804,1.3474 2.86893,5.29352 5.80694,6.73858c2.88731,1.42012 6.05558,2.20462 8.96505,3.57878c2.85244,1.34723 4.21577,3.70632 7.07849,4.90084c1.56771,0.65415 3.38858,0.366 5.03616,0.77966c2.26901,0.56968 4.41152,1.55899 6.61456,2.34611c3.30961,1.18249 6.08478,2.54291 9.29298,3.14391c-0.01128,-0.11015 -0.0172,-0.22594 -0.0172,-0.34765c0,-2.5 2.5,-2.5 2.5,-2.5c1.0536,0 2.10719,0 3.16079,0h2.25771c0,0 2.5,0 2.5,2.5c0,0.30374 -0.0369,0.57058 -0.10174,0.805c3.31159,0.6619 6.35683,2.52686 9.68857,3.04073c2.0551,0.31697 4.17435,-0.26413 6.23819,-0.01026c5.27695,0.64911 10.13969,2.73728 15.59164,1.82454c2.70468,-0.45281 5.64616,-1.88861 8.29294,-2.64534l3.16079,-0.90308c0,0 0.77353,-0.221 1.56835,0.02652c6.4131,-2.38445 13.11735,-4.77929 19.08655,-8.02956c1.54345,-2.44308 2.59909,-5.07419 4.05901,-7.55498c1.14263,-1.94163 2.83248,-3.50419 4.25563,-5.25066c1.15656,-1.41932 2.36558,-4.98045 2.99541,-6.08226c2.64874,-4.63365 5.84337,-9.15243 8.48201,-13.82238c2.78213,-4.92389 2.49106,-12.4554 2.44697,-18.14673c-0.4561,-0.69616 -0.4561,-1.50034 -0.4561,-1.50034v-0.45154c0,-6.53626 0.82189,-13.9082 -0.00637,-20.5286h-0.65442c0,0 -2.5,0 -2.5,-2.5l-0.00002,0.00001c0,-1.91755 1.4708,-2.3643 2.15614,-2.46838c-0.85809,-3.11584 -2.1314,-6.42189 -3.31465,-9.20416c-1.99435,-4.68949 -5.84377,-7.26942 -8.71369,-11.19318c-0.10223,-0.13977 -0.20345,-0.28107 -0.30361,-0.42382h-0.27711c0,0 -2.5,0 -2.5,-2.5z" fill="#000000"/><path d="M314.82445,154.33886c-0.8308,0.48463 -1.66538,0.97265 -2.49618,1.45729c-2.5426,-2.44019 -4.88567,-6.24179 -4.74596,-8.05808c0.00847,-0.1101 0.01769,-0.21751 0.0286,-0.32317c-0.09076,-0.24573 -0.17983,-0.49073 -0.26607,-0.73594c-1.24678,-1.30125 -2.37467,-2.49919 -3.40602,-3.77045l-0.77502,-0.9034l-0.11682,-0.23278l-0.19282,-0.17531l-0.36415,-0.54489l-0.00878,-0.02443l-0.17309,-0.15734l-0.1821,-0.2724l-0.09079,-0.25238l-0.17493,-0.20373l-0.36485,-0.72577l-0.00568,-0.02522c-0.13703,-0.23569 -0.27353,-0.47498 -0.40703,-0.72196c-0.45421,-0.84029 -0.78764,-1.73493 -1.10515,-2.646l-0.92949,-0.98633l-1.32325,-1.30447l-1.67085,-1.49351l-0.58382,-0.50739l-0.09435,-0.13555l-0.14026,-0.08543l-0.53681,-0.54542l-0.3429,-0.57801l-0.44235,-0.23011l-0.51397,-0.45416l-0.85423,-0.57486l-0.04716,-0.05214l-0.06509,-0.02596l-0.57827,-0.41591l-0.43494,-0.29182l-0.63961,-0.40215l-0.42033,-0.25358l-0.36952,-0.37026l-0.00704,-0.00425l-0.0641,-0.01444l-0.18139,-0.09122l-0.16496,-0.14175l-0.03022,-0.01821l-0.05445,-0.05453l-0.00459,-0.00394l-1.74236,-0.87523l-0.0159,-0.01364l-0.34703,-0.07789l-0.90801,-0.45556l-0.20383,-0.17484l-0.25259,-0.09065l-0.54511,-0.36399l-0.2848,-0.31316l-0.36274,-0.21804l-0.79873,-0.79722l-0.13621,-0.22743l-0.25335,-0.25419l-0.07089,-0.01586l-0.12266,-0.06147l-0.06128,-0.02196l-0.2726,-0.18195l-0.03497,-0.03845l-0.14672,-0.05258l-0.1239,-0.08269l-0.0109,-0.00177l-0.63589,-0.27323l-0.02321,-0.01765l-0.02868,-0.00506l-0.70224,-0.31281l-0.60853,-0.22883l-0.32106,-0.22156l-0.37293,-0.11389l-0.31448,-0.18887l-0.21756,-0.10893l-0.01591,-0.01364l-0.34747,-0.07758l-0.20544,-0.10286l-0.17437,-0.06989l-0.15416,-0.05152l-0.25802,-0.16429l-0.29841,-0.06661l-0.18175,-0.09099l-0.1591,-0.13635l-0.20441,-0.04562l-0.10589,-0.053l-0.11835,-0.02969l-0.02371,-0.04141l-0.11557,-0.05785l-0.13539,-0.11603l-0.07929,-0.01089l-0.01156,0.00314l-0.02772,-0.01665l-0.42356,-0.16971l-0.57041,-0.41203l-0.02452,-0.00547l-0.36354,-0.18195l-0.12683,-0.10869l-0.31628,-0.02462l-0.54523,-0.18211l-0.47886,-0.30483l-0.5344,-0.19118l-0.3531,-0.24132l-0.28466,-0.31335l-0.36303,-0.21772l-0.36356,-0.36375l-0.28225,-0.47106l-0.23325,-0.2392c4.00162,-1.07793 7.60457,-3.27314 11.93138,-3.67362c6.05725,-0.56065 12.19416,2.1179 17.90277,3.67567c3.16481,0.86361 3.75808,0.75917 6.34271,2.79292c2.42969,1.91183 8.36502,4.18689 9.10547,7.43466c-0.04873,3.92969 0.8851,7.29899 1.23566,11.13536c0.41946,4.59033 -0.93479,9.2695 -1.0164,13.88521c-0.38948,0.24058 -0.62325,0.50367 -0.62325,0.50367z" data-paper-data="{&quot;noHover&quot;:false,&quot;origItem&quot;:[&quot;Path&quot;,{&quot;applyMatrix&quot;:true,&quot;segments&quot;:[[316.52453,152.35116],[[317.14691,151.84857],[-0.38948,0.24058],[0.08161,-4.61571]],[[318.15316,137.98658],[0.41946,4.59033],[-0.35056,-3.83636]],[[316.91955,126.8751],[-0.04873,3.92969],[-0.74046,-3.24777]],[[307.82874,119.46217],[2.42969,1.91183],[-2.58463,-2.03375]],[[301.50138,116.67831],[3.16481,0.86361],[-5.70861,-1.55776]],[[283.6394,112.9999],[6.05725,-0.56065],[-4.32681,0.40048]],[[271.72435,116.65963],[4.00162,-1.07793],[0,0]],[271.95766,116.89877],[272.24012,117.36954],[272.60376,117.73318],[272.96674,117.95097],[273.25149,118.26419],[273.52422,118.44601],[274.05881,118.63693],[274.53772,118.9417],[275.08318,119.12352],[275.39967,119.14786],[275.52648,119.25656],[275.89013,119.43838],[275.91466,119.44383],[276.4851,119.85582],[276.90883,120.02531],[276.93656,120.04195],[276.94813,120.0388],[277.02747,120.04962],[277.16285,120.16566],[277.27846,120.22346],[277.30215,120.26491],[277.42057,120.29451],[277.52648,120.34747],[277.73103,120.39293],[277.89013,120.52929],[278.07194,120.6202],[278.37056,120.68656],[278.62863,120.85079],[278.78288,120.9022],[278.95733,120.97199],[279.16285,121.07475],[279.51058,121.15202],[279.52648,121.16566],[279.74414,121.27448],[280.05872,121.46323],[280.43192,121.57681],[280.75305,121.79828],[281.36199,122.02664],[282.06469,122.33895],[282.09341,122.34397],[282.11663,122.36162],[282.75299,122.63434],[282.7639,122.6361],[282.88785,122.71874],[283.0347,122.77118],[283.06967,122.80964],[283.3424,122.99146],[283.40373,123.01337],[283.52648,123.07475],[283.59746,123.09052],[283.92194,123.415],[284.05831,123.64227],[284.78558,124.36954],[285.14856,124.58733],[285.43331,124.90055],[285.97876,125.26419],[286.23168,125.35452],[286.43558,125.52929],[287.34467,125.98384],[287.69239,126.06111],[287.70831,126.07475],[289.45376,126.94747],[289.45836,126.95141],[289.51285,127.00591],[289.54312,127.02407],[289.70831,127.16566],[289.89013,127.25656],[289.95443,127.27086],[289.96149,127.27509],[290.33144,127.64505],[290.75287,127.8979],[291.39439,128.29885],[291.83083,128.58981],[292.41143,129.00453],[292.47689,129.03031],[292.52422,129.08237],[293.38347,129.65521],[293.90123,130.10825],[294.34813,130.33742],[294.69467,130.915],[295.24012,131.46045],[295.38302,131.54619],[295.47947,131.68209],[296.0768,132.19409],[297.7737,133.7213],[299.09742,135.04502],[[300.02501,136.03886],[0,0],[0.31751,0.91107]],[[301.12355,138.69784],[-0.45421,-0.84029],[0.1335,0.24698]],[[301.5293,139.42152],[-0.13703,-0.23569],[0,0]],[301.53492,139.44681],[301.89856,140.17409],[302.07333,140.37799],[302.16366,140.63091],[302.34548,140.90363],[302.51856,141.06098],[302.52729,141.08545],[302.89093,141.63091],[303.08376,141.80621],[303.20031,142.03929],[[303.97497,142.94306],[0,0],[1.03134,1.27126]],[[307.38024,146.71427],[-1.24678,-1.30125],[0.08625,0.2452]],[[307.64566,147.45085],[-0.09076,-0.24573],[-0.01091,0.10566]],[[307.61658,147.77449],[0.00847,-0.1101],[-0.13972,1.81629]],[[312.29683,155.75727],[-2.5426,-2.44019],[0.8308,-0.48463]],[[314.78923,154.30337],[-0.8308,0.48463],[0,0]]],&quot;closed&quot;:true}]}" fill="#a8a8a8"/><path d="M307.39995,146.76025c-1.38537,-1.44589 -2.62539,-2.76437 -3.75016,-4.19655l0.64143,0.74833l0.1359,0.09645l0.08573,0.14289l2.09091,2.09091l0.16848,0.10109l0.11593,0.15865l0.84654,0.70545l0.0262,0.02948c-0.04665,0.25366 -0.08505,0.52282 -0.11465,0.80806c-0.08407,-0.22844 -0.16614,-0.45678 -0.24632,-0.68475z" data-paper-data="{&quot;noHover&quot;:false,&quot;origItem&quot;:[&quot;Path&quot;,{&quot;applyMatrix&quot;:true,&quot;segments&quot;:[[[316.22958,151.96773],[0,0],[2.7157,-2.12152]],[[325.11187,147.52409],[-3.05418,1.51717],[2.52346,-1.25354]],[[332.27437,142.73195],[-2.33304,1.55405],[0.09491,-0.07585]],[[336.12337,139.43567],[-0.2772,0.54424],[0.69132,-1.35729]],[[337.53555,135.08973],[-0.66254,1.37157],[0.75998,-1.57329]],[[341.19062,131.33263],[-0.94225,1.47139],[1.38607,-2.16443]],[[341.75,122.75],[-0.03431,2.39553],[0.01592,-1.11119]],[[341.84071,119.41733],[0.23981,1.08512],[-0.63579,-2.87688]],[[336.92006,110.65631],[1.11085,2.86784],[-0.83724,-2.16146]],[[333.55723,102.58971],[1.73983,1.76606],[-0.47016,-0.47725]],[[331.63909,101.98962],[0.60499,0.28775],[-1.8353,-0.87291]],[[326.01349,99.63905],[1.94392,0.59284],[-3.72041,-1.13461]],[[314.96391,95.92815],[3.61265,1.4418],[-7.61685,-3.13513]],[[292.72277,96.20489],[7.69558,-1.55033],[-4.935,0.99419]],[[277.4955,98.68255],[5.0939,-0.5655],[-2.93393,0.32571]],[[267.5357,100.46958],[2.82746,-1.34096],[-1.49069,0.70698]],[[263.29464,103.02128],[1.49687,-0.6938],[-4.16458,1.93027]],[[253.51777,108.51777],[3.26322,-3.30859],[0,0]],[[252.65498,109.08687],[0.52625,-0.23256],[0.50307,0.14236]],[[254.16073,109.54866],[-0.50074,-0.16573],[4.78982,1.7976]],[[268.66416,114.53548],[-4.77287,-1.84648],[6.87326,2.65905]],[[288.02995,124.66442],[-6.25414,-3.84789],[3.22474,1.98404]],[[298.27349,132.14938],[-2.27294,-3.20458],[1.37725,1.94177]],[[301.12357,138.69785],[-1.13201,-2.09424],[1.73183,3.20392]],[[307.38026,146.71429],[-2.50365,-2.61302],[0.65756,1.86957]],[[309.79961,152.25],[-0.97751,-1.77147],[1.69504,0]],[[314.5488,152.25],[-1.21941,0],[0,0]]],&quot;closed&quot;:true}]}" fill="#a8a8a8"/><path d="M301.13551,138.7464c-0.46449,-0.85931 -0.79688,-1.78883 -1.12252,-2.7204l0.12986,0.13914l0.37782,0.5195l0.01173,0.05865l0.11497,0.24271l0.0206,0.26776l0.18181,0.54546l0.09683,0.15215l0.02871,0.17804l0.25232,0.58873l0.16257,0.40643l0.10559,0.1462l0.03912,0.17605l0.04233,0.08465c-0.1494,-0.25518 -0.29661,-0.51659 -0.44173,-0.78507z" data-paper-data="{&quot;noHover&quot;:false,&quot;origItem&quot;:[&quot;Path&quot;,{&quot;applyMatrix&quot;:true,&quot;segments&quot;:[[[316.22958,151.96773],[0,0],[2.7157,-2.12152]],[[325.11187,147.52409],[-3.05418,1.51717],[2.52346,-1.25354]],[[332.27437,142.73195],[-2.33304,1.55405],[0.09491,-0.07585]],[[336.12337,139.43567],[-0.2772,0.54424],[0.69132,-1.35729]],[[337.53555,135.08973],[-0.66254,1.37157],[0.75998,-1.57329]],[[341.19062,131.33263],[-0.94225,1.47139],[1.38607,-2.16443]],[[341.75,122.75],[-0.03431,2.39553],[0.01592,-1.11119]],[[341.84071,119.41733],[0.23981,1.08512],[-0.63579,-2.87688]],[[336.92006,110.65631],[1.11085,2.86784],[-0.83724,-2.16146]],[[333.55723,102.58971],[1.73983,1.76606],[-0.47016,-0.47725]],[[331.63909,101.98962],[0.60499,0.28775],[-1.8353,-0.87291]],[[326.01349,99.63905],[1.94392,0.59284],[-3.72041,-1.13461]],[[314.96391,95.92815],[3.61265,1.4418],[-7.61685,-3.13513]],[[292.72277,96.20489],[7.69558,-1.55033],[-4.935,0.99419]],[[277.4955,98.68255],[5.0939,-0.5655],[-2.93393,0.32571]],[[267.5357,100.46958],[2.82746,-1.34096],[-1.49069,0.70698]],[[263.29464,103.02128],[1.49687,-0.6938],[-4.16458,1.93027]],[[253.51777,108.51777],[3.26322,-3.30859],[0,0]],[[252.65498,109.08687],[0.52625,-0.23256],[0.50307,0.14236]],[[254.16073,109.54866],[-0.50074,-0.16573],[4.78982,1.7976]],[[268.66416,114.53548],[-4.77287,-1.84648],[6.87326,2.65905]],[[288.02995,124.66442],[-6.25414,-3.84789],[3.22474,1.98404]],[[298.27349,132.14938],[-2.27294,-3.20458],[1.37725,1.94177]],[[301.12357,138.69785],[-1.13201,-2.09424],[1.73183,3.20392]],[[307.38026,146.71429],[-2.50365,-2.61302],[0.65756,1.86957]],[[309.79961,152.25],[-0.97751,-1.77147],[1.69504,0]],[[314.5488,152.25],[-1.21941,0],[0,0]]],&quot;closed&quot;:true}]}" fill="#a8a8a8"/><path d="M314.68167,141.58062l0.14684,-0.05507l0.07644,-0.05272l0.05608,0.29441l-0.20542,-0.12325z" data-paper-data="{&quot;noHover&quot;:false,&quot;origItem&quot;:[&quot;Path&quot;,{&quot;applyMatrix&quot;:true,&quot;segments&quot;:[[[316.22958,151.96773],[0,0],[2.7157,-2.12152]],[[325.11187,147.52409],[-3.05418,1.51717],[2.52346,-1.25354]],[[332.27437,142.73195],[-2.33304,1.55405],[0.09491,-0.07585]],[[336.12337,139.43567],[-0.2772,0.54424],[0.69132,-1.35729]],[[337.53555,135.08973],[-0.66254,1.37157],[0.75998,-1.57329]],[[341.19062,131.33263],[-0.94225,1.47139],[1.38607,-2.16443]],[[341.75,122.75],[-0.03431,2.39553],[0.01592,-1.11119]],[[341.84071,119.41733],[0.23981,1.08512],[-0.63579,-2.87688]],[[336.92006,110.65631],[1.11085,2.86784],[-0.83724,-2.16146]],[[333.55723,102.58971],[1.73983,1.76606],[-0.47016,-0.47725]],[[331.63909,101.98962],[0.60499,0.28775],[-1.8353,-0.87291]],[[326.01349,99.63905],[1.94392,0.59284],[-3.72041,-1.13461]],[[314.96391,95.92815],[3.61265,1.4418],[-7.61685,-3.13513]],[[292.72277,96.20489],[7.69558,-1.55033],[-4.935,0.99419]],[[277.4955,98.68255],[5.0939,-0.5655],[-2.93393,0.32571]],[[267.5357,100.46958],[2.82746,-1.34096],[-1.49069,0.70698]],[[263.29464,103.02128],[1.49687,-0.6938],[-4.16458,1.93027]],[[253.51777,108.51777],[3.26322,-3.30859],[0,0]],[[252.65498,109.08687],[0.52625,-0.23256],[0.50307,0.14236]],[[254.16073,109.54866],[-0.50074,-0.16573],[4.78982,1.7976]],[[268.66416,114.53548],[-4.77287,-1.84648],[6.87326,2.65905]],[[288.02995,124.66442],[-6.25414,-3.84789],[3.22474,1.98404]],[[298.27349,132.14938],[-2.27294,-3.20458],[1.37725,1.94177]],[[301.12357,138.69785],[-1.13201,-2.09424],[1.73183,3.20392]],[[307.38026,146.71429],[-2.50365,-2.61302],[0.65756,1.86957]],[[309.79961,152.25],[-0.97751,-1.77147],[1.69504,0]],[[314.5488,152.25],[-1.21941,0],[0,0]]],&quot;closed&quot;:true}]}" fill="#a8a8a8"/><path d="M304.32993,123.79711l-0.01504,-0.04135l-0.0331,-0.1324c0.12235,0.13808 0.24494,0.27591 0.36778,0.41347z" data-paper-data="{&quot;noHover&quot;:false,&quot;origItem&quot;:[&quot;Path&quot;,{&quot;applyMatrix&quot;:true,&quot;segments&quot;:[[[316.22958,151.96773],[0,0],[2.7157,-2.12152]],[[325.11187,147.52409],[-3.05418,1.51717],[2.52346,-1.25354]],[[332.27437,142.73195],[-2.33304,1.55405],[0.09491,-0.07585]],[[336.12337,139.43567],[-0.2772,0.54424],[0.69132,-1.35729]],[[337.53555,135.08973],[-0.66254,1.37157],[0.75998,-1.57329]],[[341.19062,131.33263],[-0.94225,1.47139],[1.38607,-2.16443]],[[341.75,122.75],[-0.03431,2.39553],[0.01592,-1.11119]],[[341.84071,119.41733],[0.23981,1.08512],[-0.63579,-2.87688]],[[336.92006,110.65631],[1.11085,2.86784],[-0.83724,-2.16146]],[[333.55723,102.58971],[1.73983,1.76606],[-0.47016,-0.47725]],[[331.63909,101.98962],[0.60499,0.28775],[-1.8353,-0.87291]],[[326.01349,99.63905],[1.94392,0.59284],[-3.72041,-1.13461]],[[314.96391,95.92815],[3.61265,1.4418],[-7.61685,-3.13513]],[[292.72277,96.20489],[7.69558,-1.55033],[-4.935,0.99419]],[[277.4955,98.68255],[5.0939,-0.5655],[-2.93393,0.32571]],[[267.5357,100.46958],[2.82746,-1.34096],[-1.49069,0.70698]],[[263.29464,103.02128],[1.49687,-0.6938],[-4.16458,1.93027]],[[253.51777,108.51777],[3.26322,-3.30859],[0,0]],[[252.65498,109.08687],[0.52625,-0.23256],[0.50307,0.14236]],[[254.16073,109.54866],[-0.50074,-0.16573],[4.78982,1.7976]],[[268.66416,114.53548],[-4.77287,-1.84648],[6.87326,2.65905]],[[288.02995,124.66442],[-6.25414,-3.84789],[3.22474,1.98404]],[[298.27349,132.14938],[-2.27294,-3.20458],[1.37725,1.94177]],[[301.12357,138.69785],[-1.13201,-2.09424],[1.73183,3.20392]],[[307.38026,146.71429],[-2.50365,-2.61302],[0.65756,1.86957]],[[309.79961,152.25],[-0.97751,-1.77147],[1.69504,0]],[[314.5488,152.25],[-1.21941,0],[0,0]]],&quot;closed&quot;:true}]}" fill="#a8a8a8"/><path d="M303.08376,141.80621l0.02024,0.04048c-0.0163,-0.02212 -0.03257,-0.04429 -0.04882,-0.06647z" data-paper-data="{&quot;noHover&quot;:false,&quot;origItem&quot;:[&quot;Path&quot;,{&quot;applyMatrix&quot;:true,&quot;segments&quot;:[[[316.22958,151.96773],[0,0],[2.7157,-2.12152]],[[325.11187,147.52409],[-3.05418,1.51717],[2.52346,-1.25354]],[[332.27437,142.73195],[-2.33304,1.55405],[0.09491,-0.07585]],[[336.12337,139.43567],[-0.2772,0.54424],[0.69132,-1.35729]],[[337.53555,135.08973],[-0.66254,1.37157],[0.75998,-1.57329]],[[341.19062,131.33263],[-0.94225,1.47139],[1.38607,-2.16443]],[[341.75,122.75],[-0.03431,2.39553],[0.01592,-1.11119]],[[341.84071,119.41733],[0.23981,1.08512],[-0.63579,-2.87688]],[[336.92006,110.65631],[1.11085,2.86784],[-0.83724,-2.16146]],[[333.55723,102.58971],[1.73983,1.76606],[-0.47016,-0.47725]],[[331.63909,101.98962],[0.60499,0.28775],[-1.8353,-0.87291]],[[326.01349,99.63905],[1.94392,0.59284],[-3.72041,-1.13461]],[[314.96391,95.92815],[3.61265,1.4418],[-7.61685,-3.13513]],[[292.72277,96.20489],[7.69558,-1.55033],[-4.935,0.99419]],[[277.4955,98.68255],[5.0939,-0.5655],[-2.93393,0.32571]],[[267.5357,100.46958],[2.82746,-1.34096],[-1.49069,0.70698]],[[263.29464,103.02128],[1.49687,-0.6938],[-4.16458,1.93027]],[[253.51777,108.51777],[3.26322,-3.30859],[0,0]],[[252.65498,109.08687],[0.52625,-0.23256],[0.50307,0.14236]],[[254.16073,109.54866],[-0.50074,-0.16573],[4.78982,1.7976]],[[268.66416,114.53548],[-4.77287,-1.84648],[6.87326,2.65905]],[[288.02995,124.66442],[-6.25414,-3.84789],[3.22474,1.98404]],[[298.27349,132.14938],[-2.27294,-3.20458],[1.37725,1.94177]],[[301.12357,138.69785],[-1.13201,-2.09424],[1.73183,3.20392]],[[307.38026,146.71429],[-2.50365,-2.61302],[0.65756,1.86957]],[[309.79961,152.25],[-0.97751,-1.77147],[1.69504,0]],[[314.5488,152.25],[-1.21941,0],[0,0]]],&quot;closed&quot;:true}]}" fill="#a8a8a8"/><path d="M366.27072,213.38991c-0.23095,-0.11695 -0.46395,-0.23193 -0.69887,-0.34483c0.21284,-0.16126 0.42632,-0.30945 0.64027,-0.44622z" fill="#000000"/><path d="" fill="#000000"/><path d="" fill="#000000"/><path d="M326.22328,207.17633c0.22149,-3.22439 1.33544,-5.69286 1.35137,-9.00899c0.00799,-1.66356 0.10988,-3.3986 0.07334,-5.11861c0.36293,1.68398 0.5988,3.41474 0.60201,5.23251c0.00895,5.07945 -1.04228,6.53171 -1.89089,10.94471c-0.33444,-0.21609 -0.17597,-1.46534 -0.13583,-2.04963z" data-paper-data="{&quot;noHover&quot;:false,&quot;origItem&quot;:[&quot;Path&quot;,{&quot;applyMatrix&quot;:true,&quot;segments&quot;:[[[651.63234,365.37672],[11.56539,-2.49787],[0.08343,3.89445]],[[654.13803,376.83176],[-1.12096,-3.73907],[1.86147,6.20909]],[[655.24283,396.29929],[0.03063,-6.37719],[-0.03185,6.63228]],[[652.53325,414.3028],[0.44298,-6.44879],[-0.09524,1.38641]],[[653.28763,418.40302],[-1.27997,0.54119],[0.97664,-0.41294]],[[655.47738,416.09562],[-0.95588,0.45894],[4.2209,-2.02655]],[[668.70475,411.36881],[-4.4863,1.34016],[15.12533,-4.51829]],[[717.97399,411.16709],[-15.50466,0],[9.96833,0.12674]],[[746.6332,417.53291],[-9.82845,-1.71489],[5.9286,1.03444]],[[765.36585,419.47626],[-5.81247,-1.43935],[1.70381,0.42192]],[[769.88126,422.1855],[-1.70567,-0.41436],[3.95591,0.96102]],[[782.09282,422.00408],[-4.07097,0],[5.97475,0]],[[801.57003,420.70634],[-5.50276,2.82662],[6.68432,-3.43356]],[[816.84894,405.14404],[-4.25568,5.7963],[4.02168,-5.47758]],[[825.85926,391.78388],[0.74021,6.58715],[0.00659,-7.40899]],[[824.16329,369.3477],[1.54636,7.28523],[-1.60194,-7.54706]],[[815.92627,347.78987],[2.55837,7.24234],[-2.03178,-5.75163]],[[809.98438,330.48154],[1.90274,5.7956],[-0.36138,-1.10075]],[[808.92402,327.17158],[0.9451,0.6701],[-1.01809,-0.72184]],[[805.18117,327.07597],[1.20745,0.31565],[-5.80298,-1.51701]],[[786.28391,319.54528],[5.43233,2.71196],[-8.92488,-4.45554]],[[758.87263,308.03674],[9.4732,3.30194],[-6.17417,-2.15204]],[[737.8418,307.37875],[6.4128,0],[-6.47873,0]],[[718.80564,308.87434],[6.21843,-2.25618],[-3.42615,1.24308]],[[709.22629,314.14597],[3.31651,-1.51146],[-3.47927,1.58564]],[[699.22357,318.17502],[3.13401,-2.32724],[-1.83043,1.35923]],[[694.32025,322.94358],[1.96961,-1.14831],[-1.75817,1.02504]],[[688.41097,324.47891],[1.58575,-1.27564],[-4.98926,4.01355]],[[679.00908,343.61732],[3.00126,-5.45337],[-5.75686,10.46037]]],&quot;closed&quot;:true}]}" fill="#a8a8a8"/><path d="" data-paper-data="{&quot;noHover&quot;:false,&quot;origItem&quot;:[&quot;Path&quot;,{&quot;applyMatrix&quot;:true,&quot;segments&quot;:[[[651.63234,365.37672],[11.56539,-2.49787],[0.08343,3.89445]],[[654.13803,376.83176],[-1.12096,-3.73907],[1.86147,6.20909]],[[655.24283,396.29929],[0.03063,-6.37719],[-0.03185,6.63228]],[[652.53325,414.3028],[0.44298,-6.44879],[-0.09524,1.38641]],[[653.28763,418.40302],[-1.27997,0.54119],[0.97664,-0.41294]],[[655.47738,416.09562],[-0.95588,0.45894],[4.2209,-2.02655]],[[668.70475,411.36881],[-4.4863,1.34016],[15.12533,-4.51829]],[[717.97399,411.16709],[-15.50466,0],[9.96833,0.12674]],[[746.6332,417.53291],[-9.82845,-1.71489],[5.9286,1.03444]],[[765.36585,419.47626],[-5.81247,-1.43935],[1.70381,0.42192]],[[769.88126,422.1855],[-1.70567,-0.41436],[3.95591,0.96102]],[[782.09282,422.00408],[-4.07097,0],[5.97475,0]],[[801.57003,420.70634],[-5.50276,2.82662],[6.68432,-3.43356]],[[816.84894,405.14404],[-4.25568,5.7963],[4.02168,-5.47758]],[[825.85926,391.78388],[0.74021,6.58715],[0.00659,-7.40899]],[[824.16329,369.3477],[1.54636,7.28523],[-1.60194,-7.54706]],[[815.92627,347.78987],[2.55837,7.24234],[-2.03178,-5.75163]],[[809.98438,330.48154],[1.90274,5.7956],[-0.36138,-1.10075]],[[808.92402,327.17158],[0.9451,0.6701],[-1.01809,-0.72184]],[[805.18117,327.07597],[1.20745,0.31565],[-5.80298,-1.51701]],[[786.28391,319.54528],[5.43233,2.71196],[-8.92488,-4.45554]],[[758.87263,308.03674],[9.4732,3.30194],[-6.17417,-2.15204]],[[737.8418,307.37875],[6.4128,0],[-6.47873,0]],[[718.80564,308.87434],[6.21843,-2.25618],[-3.42615,1.24308]],[[709.22629,314.14597],[3.31651,-1.51146],[-3.47927,1.58564]],[[699.22357,318.17502],[3.13401,-2.32724],[-1.83043,1.35923]],[[694.32025,322.94358],[1.96961,-1.14831],[-1.75817,1.02504]],[[688.41097,324.47891],[1.58575,-1.27564],[-4.98926,4.01355]],[[679.00908,343.61732],[3.00126,-5.45337],[-5.75686,10.46037]]],&quot;closed&quot;:true}]}" fill="#a8a8a8"/><path d="" data-paper-data="{&quot;noHover&quot;:false,&quot;origItem&quot;:[&quot;Path&quot;,{&quot;applyMatrix&quot;:true,&quot;segments&quot;:[[[651.63234,365.37672],[11.56539,-2.49787],[0.08343,3.89445]],[[654.13803,376.83176],[-1.12096,-3.73907],[1.86147,6.20909]],[[655.24283,396.29929],[0.03063,-6.37719],[-0.03185,6.63228]],[[652.53325,414.3028],[0.44298,-6.44879],[-0.09524,1.38641]],[[653.28763,418.40302],[-1.27997,0.54119],[0.97664,-0.41294]],[[655.47738,416.09562],[-0.95588,0.45894],[4.2209,-2.02655]],[[668.70475,411.36881],[-4.4863,1.34016],[15.12533,-4.51829]],[[717.97399,411.16709],[-15.50466,0],[9.96833,0.12674]],[[746.6332,417.53291],[-9.82845,-1.71489],[5.9286,1.03444]],[[765.36585,419.47626],[-5.81247,-1.43935],[1.70381,0.42192]],[[769.88126,422.1855],[-1.70567,-0.41436],[3.95591,0.96102]],[[782.09282,422.00408],[-4.07097,0],[5.97475,0]],[[801.57003,420.70634],[-5.50276,2.82662],[6.68432,-3.43356]],[[816.84894,405.14404],[-4.25568,5.7963],[4.02168,-5.47758]],[[825.85926,391.78388],[0.74021,6.58715],[0.00659,-7.40899]],[[824.16329,369.3477],[1.54636,7.28523],[-1.60194,-7.54706]],[[815.92627,347.78987],[2.55837,7.24234],[-2.03178,-5.75163]],[[809.98438,330.48154],[1.90274,5.7956],[-0.36138,-1.10075]],[[808.92402,327.17158],[0.9451,0.6701],[-1.01809,-0.72184]],[[805.18117,327.07597],[1.20745,0.31565],[-5.80298,-1.51701]],[[786.28391,319.54528],[5.43233,2.71196],[-8.92488,-4.45554]],[[758.87263,308.03674],[9.4732,3.30194],[-6.17417,-2.15204]],[[737.8418,307.37875],[6.4128,0],[-6.47873,0]],[[718.80564,308.87434],[6.21843,-2.25618],[-3.42615,1.24308]],[[709.22629,314.14597],[3.31651,-1.51146],[-3.47927,1.58564]],[[699.22357,318.17502],[3.13401,-2.32724],[-1.83043,1.35923]],[[694.32025,322.94358],[1.96961,-1.14831],[-1.75817,1.02504]],[[688.41097,324.47891],[1.58575,-1.27564],[-4.98926,4.01355]],[[679.00908,343.61732],[3.00126,-5.45337],[-5.75686,10.46037]]],&quot;closed&quot;:true}]}" fill="#a8a8a8"/><path d="M232.55074,259.81825l-2.2593,-0.00018c-1.0536,0 -2.10939,-0.00033 -3.16299,-0.00033c0,0 -2.50136,-0.00026 -2.50136,2.49974c0,0.12171 0.00598,0.23752 0.01726,0.34767c-3.2082,-0.60099 -5.98981,-1.96317 -9.29942,-3.14565c-2.20304,-0.78713 -4.34999,-1.77821 -6.619,-2.34789c-1.64758,-0.41366 -3.47138,-0.12696 -5.0391,-0.78111c-2.86273,-1.19451 -4.23095,-3.55662 -7.08339,-4.90384c-2.90947,-1.37416 -6.08252,-2.16245 -8.96983,-3.58257c-2.93801,-1.44505 -3.18296,-5.39527 -5.811,-6.74266c-0.51031,-0.26164 -1.06932,-0.35255 -1.64769,-0.37183c1.20003,-1.95725 0.29935,-4.71879 0.63043,-7.03634c1.01093,-7.07654 0.47,-14.43875 0.47,-21.58818c0,-3.61563 -1.13236,-6.82194 2.3967,-8.69937c0.75257,-0.45154 1.50497,-0.9038 2.25754,-1.35534l1.12628,-0.16984c0,0 2.42487,-0.60881 1.81853,-3.03416c-0.60634,-2.42535 -3.03201,-1.82114 -3.03201,-1.82114l-2.38691,0.72019c-0.75257,0.45154 -1.50527,0.90221 -2.25783,1.35375c-0.93526,0.59991 -2.08887,0.94988 -2.80594,1.79864c-2.80461,3.31966 -2.02234,7.22333 -2.02234,11.1732c0,5.92897 0.34571,11.9603 0.00133,17.87412c-0.06458,1.10902 -0.88566,5.32479 -0.90481,6.31902c-0.0132,0.68544 0.48693,1.34786 0.36639,2.02275c-0.11332,0.63445 -1.51614,0.18318 -1.9877,-0.25613c-1.70578,-1.58915 -2.75448,-3.83711 -3.56136,-6.02435c-0.87317,-2.36693 -1.22957,-4.95705 -2.44608,-7.16723c-1.12681,-2.0472 -3.84679,-4.40995 -5.54695,-6.06841c-1.32276,-2.53776 -0.88413,-4.71591 -0.88413,-7.57343c0,-5.06813 0.68797,-10.71215 -0.02577,-15.7088c-0.39159,-2.74135 -1.6484,-5.16355 -2.60532,-7.7123l1.97576,-1.79921c1.74595,-4.0896 1.82831,-6.46361 5.7622,-8.78109c0,0 2.14421,-1.28858 0.85797,-3.43231c-1.28624,-2.14373 -3.33251,-0.83509 -3.33251,-0.83509c-2.18004,1.327 -3.93991,2.10777 -5.3832,4.48488c-0.45809,0.75448 -0.87932,1.5584 -1.15263,2.40019c0.10032,-4.231 1.06841,-8.5673 1.62184,-12.54734c0.45129,-3.24551 -0.12166,-5.45627 0.81719,-8.64346c0.89383,-2.70985 0.94459,-5.72787 2.15368,-8.30218c2.52561,-5.37734 6.35182,-9.71182 9.70972,-14.5025c5.49408,-7.83836 12.02702,-14.83518 22.1172,-15.65507c0,0 0.53625,-0.04906 1.08809,-0.34977c0.90324,0.55965 2.00252,0.28453 2.00252,0.28453c6.81931,-1.70832 12.71198,-6.13711 19.67372,-7.18745c3.86586,-0.58325 8.06803,0.3203 11.97559,0.02446c7.97478,-0.60376 16.15474,-1.36401 23.83857,1.21787c4.75568,1.782 9.65972,3.13661 14.40473,4.94975c6.60838,2.52517 12.57759,6.05367 18.57561,9.74553c2.56263,1.57733 6.964,3.49474 8.72634,6.06573c1.24646,1.8184 1.52877,4.15507 2.57118,6.09765c1.74289,3.24796 3.7123,5.74133 6.39056,8.24457c0.90413,2.90822 2.39933,5.86519 4.20673,8.33627c2.86992,3.92377 6.7224,6.51186 8.71676,11.20135c1.50203,3.53184 3.15067,7.91513 3.90936,11.6745c1.45754,7.22223 0.41113,15.67404 0.41113,23.04814l-0.00005,0.45181c0,0 -0.00014,0.80502 0.45596,1.50118c0.04408,5.69133 0.33208,13.23308 -2.45005,18.15697c-2.63864,4.66995 -5.83776,9.19708 -8.4865,13.83073c-0.62982,1.10181 -1.84114,4.6661 -2.99769,6.08542c-1.42315,1.74648 -3.11556,3.31201 -4.25818,5.25365c-1.45992,2.4808 -2.51888,5.11519 -4.06233,7.55827c-5.96919,3.25027 -12.68298,5.65184 -19.09608,8.03629c-0.79483,-0.24752 -1.56907,-0.02613 -1.56907,-0.02613l-3.16253,0.90395c-2.64677,0.75673 -5.5931,2.19453 -8.29779,2.64734c-5.45195,0.91274 -10.32366,-1.17319 -15.60061,-1.82229c-2.06384,-0.25387 -4.18713,0.32768 -6.24223,0.01071c-3.33174,-0.51387 -6.38348,-2.37879 -9.69506,-3.04069c0.06484,-0.23442 0.10178,-0.50126 0.10178,-0.805c0,-2.5 -2.50188,-2.50014 -2.50188,-2.50014z" data-paper-data="{&quot;noHover&quot;:false,&quot;origItem&quot;:[&quot;Path&quot;,{&quot;applyMatrix&quot;:true,&quot;segments&quot;:[[[470.11099,524.53695],[0,-5],[0,0.60749]],[[469.9075,526.14696],[0.12968,-0.46884],[6.62317,1.3238]],[[489.28464,532.22843],[-6.66347,-1.02774],[4.1102,0.63394]],[[501.76103,532.20792],[-4.12769,-0.50774],[10.5539,1.29821]],[[532.94432,535.85699],[-10.9039,1.82549],[5.40937,-0.90562]],[[549.53019,530.56631],[-5.29355,1.51346],[0,0]],[555.85177,528.76015],[[558.98848,528.81318],[-1.58966,-0.49504],[12.8262,-4.76889]],[[597.16157,512.75407],[-11.93838,6.50053],[3.0869,-4.88617]],[[605.27958,497.6441],[-2.91983,4.96159],[2.28525,-3.88327]],[[613.79085,487.14277],[-2.8463,3.49296],[2.31311,-2.83863]],[[619.78166,474.97825],[-1.25965,2.20361],[5.29748,-9.2673]],[[636.74568,447.33349],[-5.27729,9.33989],[5.56426,-9.84778]],[[641.63962,411.04004],[0.08817,11.38266],[-0.9122,-1.39232]],[640.72742,408.03935],[[640.72742,407.13627],[0,0],[0,-14.74819]],[[639.90457,361.06813],[2.91507,14.44446],[-1.51738,-7.51875]],[[632.08881,337.73399],[3.00405,7.06367],[-3.98871,-9.37898]],[[614.66142,315.34762],[5.73984,7.84754],[-3.61479,-4.94216]],[[606.25396,298.68583],[1.80825,5.81644],[-5.35652,-5.00648]],[[593.48104,282.20774],[3.48578,6.49592],[-2.08481,-3.88515]],[[588.34419,270.01838],[2.49292,3.63679],[-3.52469,-5.14198]],[[570.90182,257.89584],[5.12525,3.15466],[-11.99605,-7.38372]],[[533.7745,238.41811],[13.21677,5.05033],[-9.49002,-3.62628]],[[504.98411,228.52394],[9.51135,3.56401],[-15.36767,-5.16375]],[[457.3377,226.08878],[15.94956,-1.20752],[-7.81513,0.59167]],[[433.40095,226.03679],[7.73171,-1.16651],[-13.92347,2.10068]],[[394.0771,240.40138],[13.63862,-3.41664],[0,0]],[[390.07367,239.83132],[1.80649,1.1193],[-1.10367,0.60142]],[[387.89861,240.53013],[0,0],[-20.18036,1.63978]],[[343.68774,271.81912],[10.98815,-15.67672],[-6.71579,9.58137]],[[324.2793,300.80727],[5.05121,-10.75468],[-2.41818,5.14862]],[[319.97601,317.4027],[1.78766,-5.4197],[-1.8777,6.37438]],[[318.34487,334.68013],[0.90259,-6.49102],[-1.10686,7.96008]],[[315.10426,359.7599],[0.20065,-8.462],[0.54662,-1.68359]],[[317.21158,354.93112],[-0.91617,1.50895],[2.88657,-4.75423]],[[327.97928,345.95463],[-4.36008,2.65399],[0,0]],[[334.83922,347.66962],[-2.57248,-4.28746],[2.57248,4.28746]],[[333.12424,354.52956],[0,0],[-7.86779,4.63497]],[[321.60125,372.0795],[3.4919,-8.1792],[0,0]],[[317.64982,375.67555],[0,0],[1.91383,5.0975]],[[322.86028,391.09037],[-0.78318,-5.48271],[1.42749,9.99328]],[[322.90861,422.48867],[0,-10.13626],[0,5.71503]],[[324.67406,437.62676],[-2.64551,-5.07551],[3.40032,3.31692]],[[335.76419,449.75474],[-2.25363,-4.0944],[2.43303,4.42034]],[[340.6519,464.08099],[-1.74634,-4.73385],[1.61376,4.37448]],[[347.76981,476.1225],[-3.41156,-3.17829],[0.94312,0.87863]],[[351.5848,476.75419],[-0.22664,1.2689],[0.24109,-1.34978]],[[350.85064,472.70682],[-0.02641,1.37088],[0.03831,-1.98845]],[[352.6568,460.06367],[-0.12916,2.21804],[0.68875,-11.82764]],[[352.64422,424.29483],[0,11.85793],[0,-7.89975]],[[356.68486,401.93286],[-5.60922,6.63933],[1.43415,-1.69753]],[[362.2964,398.3334],[-1.87051,1.19982],[1.50514,-0.90308]],[[366.81181,395.62415],[-1.50514,0.90308],[0,0]],[371.78394,394.15782],[[377.84733,397.79586],[-1.21268,-4.85071],[1.21268,4.85071]],[374.2093,403.85925],[[371.95677,404.19908],[0,0],[-1.50514,0.90308]],[[367.44136,406.90833],[1.50514,-0.90308],[-7.05813,3.75487]],[[362.64422,424.29483],[0,-7.23127],[0,14.29885]],[[361.69089,467.4468],[2.02187,-14.15308],[-0.66216,4.6351]],[[360.4258,481.51417],[2.40006,-3.9145],[1.15674,0.03856]],[[363.72004,482.2565],[-1.02063,-0.52328],[5.25608,2.69479]],[[375.33391,495.73366],[-5.87602,-2.89011],[5.77462,2.84024]],[[393.26401,502.89122],[-5.81894,-2.74832],[5.70487,2.69445]],[[407.42099,512.69289],[-5.72545,-2.38903],[3.13543,1.3083]],[[417.49332,514.25221],[-3.29517,-0.82731],[4.53803,1.13935]],[[430.72244,518.94444],[-4.40608,-1.57425],[6.61921,2.36498]],[[449.30841,525.23225],[-6.41641,-1.20198],[-0.02255,-0.2203]],[[449.27401,524.53695],[0,0.24342],[0,-5]],[[454.27401,519.53695],[0,0],[2.10719,0]],[[460.59558,519.53695],[-2.10719,0],[0,0]],[465.11099,519.53695]],&quot;closed&quot;:true}]}" fill="#a8a8a8"/><path d="M203.86612,148.48012c0,-1.38071 1.11929,-2.5 2.5,-2.5c1.38071,0 2.5,1.11929 2.5,2.5c0,1.38071 -1.11929,2.5 -2.5,2.5c-1.38071,0 -2.5,-1.11929 -2.5,-2.5z" fill="#000000"/><path d="M284.48272,190.23115c2.5,0 2.5,2.5 2.5,2.5l-0.26393,-0.21495c1.97467,4.03138 2.51187,7.92502 2.52164,12.40656c-0.05474,4.92175 -2.84435,8.52153 -3.16708,13.27191c-0.31437,4.62741 -1.26173,8.98949 -1.80998,13.59352c-0.28354,2.38112 0.4454,3.50651 -0.02218,6.04597c-0.5125,2.7834 -1.22703,5.60116 -2.57075,8.09202c-0.44018,0.81596 -1.39164,1.24728 -1.93273,2.00012c-1.1795,1.64109 -1.14194,3.91372 -2.13113,5.67608c-2.98199,5.31277 -11.08827,7.19099 -16.16198,3.53644c-1.3832,-0.99631 -2.16282,-2.63546 -3.24423,-3.95319c-0.09227,-3.4786 0.13676,-6.97875 1.35927,-10.29412c0.75468,-2.04665 2.28305,-3.72325 3.26894,-5.66911c1.42842,-2.8193 1.3161,-5.74183 2.70134,-8.56327c0.44275,-0.9018 1.35744,-1.54145 1.70887,-2.48261c0.84116,-2.25274 0.29463,-5.79538 0.29463,-8.15909c0,-1.89343 0.73121,-4.9302 -0.73704,-6.48259c-1.69301,-1.79002 -4.34472,-2.13923 -6.58435,-2.88577c0,0 -2.37171,-0.79056 -1.58114,-3.16227c0.79057,-2.37171 3.16228,-1.58114 3.16228,-1.58114c0.46886,0.15629 5.5969,1.85381 5.82263,1.98182c5.12968,2.90893 4.91762,6.9803 4.91762,12.12996c0,3.13211 0.42623,6.90444 -0.60845,9.90256c-0.38049,1.10251 -1.3736,1.89688 -1.90347,2.93589c-0.78212,1.53365 -0.68771,3.37987 -1.20127,5.02306c-1.00558,3.21743 -3.47739,5.68346 -4.56851,8.74012c-0.72001,2.01701 -1.2183,4.71632 -1.34998,6.86444c2.58916,2.98453 8.29291,3.60366 10.3955,-0.41676c1.00655,-1.92465 1.15801,-4.27132 2.38428,-6.06399c0.43815,-0.64052 1.30378,-0.93322 1.67959,-1.6122c2.1259,-3.8409 1.44975,-7.96233 1.92248,-12.05139c0.52694,-4.55793 1.41679,-8.93625 1.80235,-13.49894c0.39577,-4.6835 3.22367,-8.23704 3.1545,-12.91747c0.00908,-3.65617 -0.32247,-6.9135 -1.99378,-10.1705l-0.26393,-2.02111c0,0 0,-2.5 2.5,-2.5z" fill="#000000"/><path d="M237.70663,139.97761c-0.07193,0.38002 -0.04655,0.69552 0.21628,0.61631c0.90697,-0.27334 0.82395,-0.63944 -0.21628,-0.61631zM240.00716,135.69482c1.14906,0.30485 2.36407,0.54599 2.80271,1.53708c2.82104,6.37403 -6.29977,11.98966 -9.40328,4.98028c-0.68478,-1.54658 -0.49386,-3.45651 0,-5.0742c0.34222,-1.12098 1.56539,-1.74482 2.3481,-2.61723c0,0 1.76777,-1.76776 3.53553,0c0.39809,0.39809 0.61688,0.79617 0.71695,1.17407z" fill="#000000"/><path d="M190.33641,133.83264c0.92575,-0.21499 1.79534,0.21981 1.79534,0.21981l3.18813,3.13915c-0.1573,1.69137 0.54078,3.71031 -0.47189,5.07411c-2.00943,2.70614 -6.1187,2.22771 -8.49124,0.80951c-1.4212,-0.84953 -3.50283,-1.67581 -3.69433,-3.32045c-0.36351,-3.1218 3.96166,-4.72116 5.87864,-5.70231c0,0 0.8696,-0.4348 1.79535,-0.21981z" fill="#000000"/><path d="M218.73531,189.60249c-1.38675,-2.08013 0.69338,-3.46687 0.69338,-3.46687l1.28827,-0.85729c1.71467,-1.21877 3.20296,-2.732 4.88152,-4.00005c0.55202,-0.41702 1.38478,-0.43287 1.84613,-0.94843c0.0916,-0.10236 0.16401,-0.2594 0.22087,-0.45399c-0.04935,0.00289 -0.07692,0.0029 -0.07692,0.0029h-1.80617c-4.45392,0 -8.87034,0.06465 -13.13158,-1.53807c-2.79531,-1.05136 -5.30831,-3.16747 -8.59348,-2.55809c-2.66146,0.4937 -5.53784,1.93601 -7.99494,2.99093c0,0 -0.25594,0.10969 -0.63359,0.17043c1.59896,2.57399 2.82043,5.33203 5.02889,7.50401c0,0 1.76776,1.76776 0,3.53553c-1.76776,1.76776 -3.53554,0 -3.53554,0c-2.98636,-3.02574 -4.27307,-6.87687 -6.9387,-10.1167c-1.89817,-2.30704 -4.59409,-5.00494 -5.77961,-7.81696c-0.44689,-1.06001 -0.21157,-2.30656 -0.54335,-3.40804c-0.3416,-1.13404 -1.47535,-2.05543 -1.45908,-3.23969c0.07224,-5.25805 1.50403,-5.04415 3.45333,-8.63039c1.12975,-2.07845 1.09819,-4.72674 2.47228,-6.6524c0.65587,-0.91914 1.90099,-1.22141 2.81412,-1.88562c3.7031,-2.69362 6.94351,-4.6425 11.08819,-6.66172c2.98471,-0.39543 7.8281,-1.39137 10.8485,-0.47506c4.65692,1.41278 9.55922,6.08554 11.92777,10.23046c1.01484,1.77594 0.96872,3.97702 1.56976,5.93216c0.58968,1.91817 1.39614,3.76399 2.16826,5.61627c2.49758,5.99154 7.48567,14.12983 2.8012,20.58267c-0.62619,0.86258 -1.83561,1.09661 -2.66928,1.76082c-1.70088,1.35513 -3.28538,2.85998 -5.05238,4.12769l-1.42097,0.94887c0,0 -2.08012,1.38675 -3.46687,-0.69338zM223.92423,164.78922c-2.89643,-6.95439 -3.70504,-16.14729 -12.32975,-18.8598c-2.13301,-0.67084 -5.95707,0.18033 -8.11624,0.42802c-0.93427,0.4824 -1.91363,0.87557 -2.88234,1.28874c0.09226,0.26082 0.14247,0.54151 0.14247,0.83394c0,1.38071 -1.11929,2.5 -2.5,2.5c-0.73499,0 -1.39589,-0.31717 -1.85332,-0.82211c-0.84644,0.74863 -1.6529,1.55618 -2.58951,2.18086c-0.52417,0.34959 -1.34827,0.30176 -1.70128,0.82363c-1.18213,1.74759 -1.04965,4.12944 -2.04313,5.99075c-0.99704,1.86798 -2.92302,3.42949 -2.86825,5.81892c0.01918,0.83711 0.99777,1.38042 1.25017,2.1788c0.29497,0.93304 -0.01188,2.00829 0.35974,2.91354c0.76801,1.87084 2.49107,3.71081 3.96243,5.36176c0.42993,-0.85947 1.33758,-1.24846 1.33758,-1.24846c3.77003,-1.613 8.36964,-4.0438 12.60516,-3.3408c2.74321,0.45531 5.24106,1.86288 7.8328,2.87056c3.57718,1.39084 7.50681,1.17119 11.25163,1.17119h1.80617c0,0 0.06081,0 0.16347,0.00948c-0.3301,-3.63391 -2.35365,-6.55957 -3.82779,-10.09901z" fill="#000000"/><path d="M262.20412,217.56591c0,0.75 -0.75,0.75 -0.75,0.75l-1.27216,-0.00455c-4.946,1.12915 -9.43362,3.43127 -14.51302,3.83084c-10.05714,0.79114 -20.63515,0.40827 -30.54361,-1.47691c-3.32354,-0.63303 -6.45247,-1.01462 -9.76592,-1.45415c-5.0622,-0.67149 -9.97683,-3.15377 -14.62424,-5.01274c0,0 -0.69636,-0.27854 -0.41781,-0.9749c0.27855,-0.69636 0.9749,-0.41782 0.9749,-0.41782c4.53563,1.81425 9.31616,4.262 14.26442,4.91848c3.33638,0.44263 6.50349,0.83174 9.84902,1.46755c9.7779,1.86034 20.22106,2.23582 30.14561,1.45511c5.0534,-0.39753 9.52039,-2.7372 14.46573,-3.82636l1.43708,-0.00455c0,0 0.75,0 0.75,0.75z" fill="#000000"/><path d="M258.91738,232.50228c0.41602,0.62404 -0.20801,1.04006 -0.20801,1.04006l-0.10655,0.07103c-2.96975,1.97582 -6.69793,2.84321 -10.08397,4.11434c-3.1691,1.18969 -6.50134,3.39786 -9.81777,4.05407c-2.63813,0.52199 -5.95439,0.03839 -8.61907,-0.24063c-6.39778,-0.66991 -12.78931,-1.53466 -18.96695,-3.38981c-2.13752,-0.6419 -5.74394,-1.48609 -5.95048,-3.8784c0,0 0,-0.75 0.75,-0.75c0.75,0 0.75,0.75 0.75,0.75c-0.21648,0.9833 3.87051,2.13836 4.8865,2.44317c6.08782,1.82642 12.38287,2.67308 18.68715,3.3332c2.51658,0.26351 5.68553,0.75293 8.1717,0.261c3.22161,-0.63745 6.49802,-2.82926 9.58175,-3.9869c3.27561,-1.22967 6.9183,-2.04678 9.7791,-3.95811l0.10655,-0.07103c0,0 0.62403,-0.41603 1.04006,0.20801z" fill="#000000"/><path d="M241.21357,248.64346c0.53033,0.53033 0,1.06066 0,1.06066l-0.31105,0.25662c-1.39228,2.58957 -6.15869,4.08071 -9.02452,3.52913c-1.99166,-0.38333 -3.54009,-1.31829 -5.64408,-1.30838c0,0 -0.75,0 -0.75,-0.75c0,-0.75 0.75,-0.75 0.75,-0.75c3.52085,0.01452 11.16397,3.50062 13.32695,-1.39157l0.59203,-0.64646c0,0 0.53033,-0.53033 1.06066,0z" fill="#000000"/><path d="M57.96219,159.31711c0,-0.41422 0.33579,-0.75 0.75,-0.75c0.41421,0 0.75,0.33578 0.75,0.75c0,0.41422 -0.33579,0.75 -0.75,0.75c-0.41421,0 -0.75,-0.33578 -0.75,-0.75z" fill="#7d7d7d"/><path d="" fill="#a8a8a8"/></g></g></svg>