<svg version="1.1" xmlns="http://www.w3.org/2000/svg" xmlns:xlink="http://www.w3.org/1999/xlink" width="101.47864" height="101.99265" viewBox="0,0,101.47864,101.99265"><g transform="translate(-189.56068,-129.30367)"><g data-paper-data="{&quot;isPaintingLayer&quot;:true}" stroke-miterlimit="10" stroke-dasharray="" stroke-dashoffset="0" style="mix-blend-mode: normal"><path d="M257.23932,131.95476c0.3,-0.2 0.8,-0.1 0.9,0.3l2.6,10.7c0,0 6.4,4.7 8.3,8c3.2,5.5 3.3,10 3.3,10c0,0 7.1,2.1 8.3,7.8c1.2,5.7 -3.2,16.5 -22,20.2c-18.8,3.7 -33.9,-1.4 -41,-12.8c-7.1,-11.4 4.1,-25 3.5,-24.2l-2.1,-17.9c-0.1,-0.4 0.4,-0.7 0.8,-0.5l12.1,7.9c0,0 4.5,-1.7 9.2,-1.9c2.8,-0.2 5.2,0 7.5,0.4z" fill="#bd7e00" fill-rule="evenodd" stroke="#001026" stroke-width="1.2" stroke-linecap="butt" stroke-linejoin="miter"/><g fill-rule="evenodd"><path d="M228.23932,202.05476c0.8,0.4 2.5,1.3 0.1,4.7c-2.4,3.4 -9.3,4.1 -10.1,4.1c-3.1,0.1 -6.9,0.1 -11.1,-1.3c-12.2,-4 -12.3,-17.1 -8.4,-19.2c3.8,-2.1 5.5,6 11,10.9c2.4,2.2 5.3,3 7.7,3.5c3.4,0.6 9.9,-3.2 10.8,-2.7z" fill="#bd7e00" stroke="#001026" stroke-width="1.2" stroke-linecap="round" stroke-linejoin="round"/><path d="M203.43932,193.95476c1.6,2.7 4.7,6.5 4.7,6.5c0,0 -3.7,-0.9 -5.8,0.8c-1.7,1.3 -1.3,3.5 -1.1,4.2c-1.3,-1.3 -2.9,-3.1 -3.9,-6.6c-1,-3.5 0,-7.7 2,-8.3c2,-0.4 2.5,1.1 4.1,3.4z" fill="#05cd00" stroke="none" stroke-width="1" stroke-linecap="butt" stroke-linejoin="miter"/></g><path d="M233.23932,212.45476c-1.8,1.2 -8,5.6 -15.9,8.1l-0.4,0.1c-0.4,0.1 -0.6,0.6 -0.4,1c1.7,2.4 4.8,7.2 -0.7,8.9c-5.3,1.7 -15.2,-12.4 -11,-16.1c1.9,-1.4 3.6,-0.7 4.5,-0.3c0.5,0.2 1,0.2 1.5,0.1c1.2,-0.4 3.4,-1.2 5.1,-2.1c4.3,-2.2 5.3,-3.1 7.3,-4.6c2,-1.5 6.6,-5.2 10.3,-2c3.2,2.7 1.4,5.7 -0.3,6.9z" fill="#bd7e00" fill-rule="evenodd" stroke="#001026" stroke-width="1.2" stroke-linecap="round" stroke-linejoin="round"/><path d="M249.13932,191.65476c0.5,0.4 6.6,7.6 8.6,5.8c2.4,-2.1 5.7,-6.2 9.3,-2.9c3.6,3.3 -3.2,8.9 -6.1,10.4c-6.9,3.1 -12.5,-2.8 -13.7,-4.4c-1.2,-1.6 -3.3,-4.3 -3.3,-6.9c0.1,-2.8 3.5,-3.5 5.2,-2z" fill="#bd7e00" fill-rule="evenodd" stroke="#001026" stroke-width="1.2" stroke-linecap="round" stroke-linejoin="round"/><g fill-rule="evenodd"><path d="M249.23932,214.95476c2.1,1.9 6.7,5.8 6.7,5.8c0,0 14.3,-2.5 14.3,4.7c0,4.3 -7.2,5.3 -16.9,4.4c-0.6,-0.1 -1.2,-0.3 -1.7,-0.7c-2.2,-1.9 -8.5,-7.5 -12.5,-11.4c-5.9,-5.8 -10.8,-9.6 -10.8,-9.6c-8.5,-8.3 -1.6,-11.8 1.1,-16.6c2.5,-4.1 3.6,-3.3 9.6,-2.1c3.4,0.5 5.4,0.8 7.6,0.7c3.3,-0.1 2.7,4.7 1.8,7.2c0,0 -1.4,3.7 -2.7,5.6c-1.6,2.3 -2.8,3.8 -4,4.7z" fill="#bd7e00" stroke="#001026" stroke-width="1.2" stroke-linecap="round" stroke-linejoin="round"/><path d="M240.83932,207.55476c0,0 -1.5,-1.2 -3.1,-2.7c-2,-1.8 -4,-3.3 -2,-6.4c1.8,-2.4 3.5,-5.6 8,-2.7c4.3,2.7 2.4,5.2 2.4,5.2c-2.2,4.5 -5.3,6.6 -5.3,6.6z" fill="#ffffff" stroke="none" stroke-width="1" stroke-linecap="butt" stroke-linejoin="miter"/></g><path d="M225.73932,199.35476c2.2,2.8 5.6,6.3 1.3,9.2c-5.9,3.3 -10.8,-6.7 -11.8,-10.2c-0.9,-3.1 1.7,-5.1 3.9,-6.8c4.3,-3.1 7.9,-5.9 11.9,-4.4c5,1.8 1.4,5.8 -1.1,7.6c-1.5,1.1 -3,2.3 -4.1,3c-0.3,0.5 -0.4,1.1 -0.1,1.6z" fill="#bd7e00" fill-rule="evenodd" stroke="#001026" stroke-width="1.2" stroke-linecap="round" stroke-linejoin="round"/><path d="M272.03932,161.35476c0,0 6.9,1.8 8.1,7.5c1.2,5.7 -3.6,16 -22.2,19.6c-24.2,5 -35.7,-9.4 -29,-20c6.7,-10.7 18.2,-1.6 26.6,-2.2c7.2,-0.5 8,-6.8 16.5,-4.9z" fill="#ffffff" fill-rule="evenodd" stroke="none" stroke-width="1" stroke-linecap="butt" stroke-linejoin="miter"/><path d="M240.53932,172.05476c0,-0.4 0.4,-0.7 0.8,-0.6c1.9,0.7 7.3,2.3 13.3,2.7c5.4,0.3 8.6,0 10.1,-0.3c0.5,-0.1 0.9,0.4 0.7,0.9c-0.9,2.7 -4.7,10.2 -15.2,9.6c-9.1,-1 -10,-7.4 -9.7,-12.3z" fill="#ffffff" fill-rule="evenodd" stroke="#001026" stroke-width="1.2" stroke-linecap="round" stroke-linejoin="round"/><path d="M290.43932,162.45476c-4.7,3.8 -11.9,3.9 -11.9,3.9" fill="none" fill-rule="evenodd" stroke="#ff00ed" stroke-width="1.2" stroke-linecap="round" stroke-linejoin="round"/><path d="M289.13932,173.65476c-6.3,0.5 -10.2,-1.4 -10.2,-1.4" fill="none" fill-rule="evenodd" stroke="#ff00ed" stroke-width="1.2" stroke-linecap="round" stroke-linejoin="round"/><path d="M255.13932,163.65476c2.1,0 4.3,0.2 4.4,0.9c0.1,1.4 -1.4,4.2 -3,4.3c-1.8,0.2 -6,-2.3 -6,-3.9c-0.1,-1.2 2.6,-1.3 4.6,-1.3z" fill="#001026" fill-rule="evenodd" stroke="#001026" stroke-width="1.2" stroke-linecap="round" stroke-linejoin="round"/><path d="M210.13932,162.15476c0,0 8.6,2.8 12.1,5.9" fill="none" fill-rule="evenodd" stroke="#ff00ed" stroke-width="1.2" stroke-linecap="round" stroke-linejoin="round"/><path d="M222.53932,171.55476c-4.3,1.7 -11.7,0.6 -11.7,0.6" fill="none" fill-rule="evenodd" stroke="#ff00ed" stroke-width="1.2" stroke-linecap="round" stroke-linejoin="round"/><g fill-rule="evenodd"><path d="M266.93932,151.95476c2.9,4.5 3,9.6 0.2,11.4c-2.8,1.8 -7.4,-0.3 -10.4,-4.8c-2.9,-4.5 -3,-9.6 -0.2,-11.4c2.8,-1.9 7.5,0.3 10.4,4.8z" fill="#ffffff" stroke="#001026" stroke-width="1.2" stroke-linecap="round" stroke-linejoin="round"/><path d="M266.53932,157.65476c0,1.1 -0.8,2 -1.8,2c-1,0 -1.8,-0.9 -1.8,-2c0,-1.1 0.8,-2 1.8,-2c1,0 1.8,0.9 1.8,2" fill="#001026" stroke="none" stroke-width="1" stroke-linecap="butt" stroke-linejoin="miter"/></g><g fill-rule="evenodd"><path d="M242.13932,154.75476c3,4.4 2.8,9.8 0.1,11.7c-3.3,1.9 -7.7,0.5 -10.7,-3.9c-3.1,-4.4 -3.3,-10.1 -0.2,-12.3c3.1,-2.3 7.8,0.1 10.8,4.5z" fill="#ffffff" stroke="#001026" stroke-width="1.2" stroke-linecap="round" stroke-linejoin="round"/><path d="M241.53932,160.55476c0,1.1 -0.8,2 -1.8,2c-1,0 -1.8,-0.9 -1.8,-2c0,-1.1 0.8,-2 1.8,-2c1,0.1 1.8,0.9 1.8,2" fill="#001026" stroke="none" stroke-width="1" stroke-linecap="butt" stroke-linejoin="miter"/></g><path d="M209.41506,221.5975c0,-0.55229 0.44772,-1 1,-1c0.55228,0 1,0.44771 1,1c0,0.55229 -0.44772,1 -1,1c-0.55228,0 -1,-0.44771 -1,-1z" fill="#9e6900" fill-rule="nonzero" stroke="none" stroke-width="0.5" stroke-linecap="butt" stroke-linejoin="miter"/><path d="M214.7552,225.56838c0,-0.55229 0.44772,-1 1,-1c0.55228,0 1,0.44771 1,1c0,0.55229 -0.44772,1 -1,1c-0.55228,0 -1,-0.44771 -1,-1z" fill="#9e6900" fill-rule="nonzero" stroke="none" stroke-width="0.5" stroke-linecap="butt" stroke-linejoin="miter"/><path d="M221.60152,213.65576c0,-0.55229 0.44772,-1 1,-1c0.55228,0 1,0.44771 1,1c0,0.55229 -0.44772,1 -1,1c-0.55228,0 -1,-0.44771 -1,-1z" fill="#9e6900" fill-rule="nonzero" stroke="none" stroke-width="0.5" stroke-linecap="butt" stroke-linejoin="miter"/><path d="M209.68891,206.1248c0,-0.55229 0.44772,-1 1,-1c0.55228,0 1,0.44771 1,1c0,0.55229 -0.44772,1 -1,1c-0.55228,0 -1,-0.44771 -1,-1z" fill="#9e6900" fill-rule="nonzero" stroke="none" stroke-width="0.5" stroke-linecap="butt" stroke-linejoin="miter"/><path d="M205.58112,204.75553c0,-0.55229 0.44772,-1 1,-1c0.55228,0 1,0.44771 1,1c0,0.55229 -0.44772,1 -1,1c-0.55228,0 -1,-0.44771 -1,-1z" fill="#9e6900" fill-rule="nonzero" stroke="none" stroke-width="0.5" stroke-linecap="butt" stroke-linejoin="miter"/><path d="M219.27378,197.77228c0,-0.55229 0.44772,-1 1,-1c0.55228,0 1,0.44771 1,1c0,0.55229 -0.44772,1 -1,1c-0.55228,0 -1,-0.44771 -1,-1z" fill="#9e6900" fill-rule="nonzero" stroke="none" stroke-width="0.5" stroke-linecap="butt" stroke-linejoin="miter"/><path d="M237.62194,212.42342c0,-0.55229 0.44772,-1 1,-1c0.55228,0 1,0.44771 1,1c0,0.55229 -0.44772,1 -1,1c-0.55228,0 -1,-0.44771 -1,-1z" fill="#9e6900" fill-rule="nonzero" stroke="none" stroke-width="0.5" stroke-linecap="butt" stroke-linejoin="miter"/><path d="M231.04946,207.90484c0,-0.55229 0.44772,-1 1,-1c0.55228,0 1,0.44771 1,1c0,0.55229 -0.44772,1 -1,1c-0.55228,0 -1,-0.44771 -1,-1z" fill="#9e6900" fill-rule="nonzero" stroke="none" stroke-width="0.5" stroke-linecap="butt" stroke-linejoin="miter"/><path d="M207.49809,217.21585c0,-0.55229 0.44772,-1 1,-1c0.55228,0 1,0.44771 1,1c0,0.55229 -0.44772,1 -1,1c-0.55228,0 -1,-0.44771 -1,-1z" fill="#9e6900" fill-rule="nonzero" stroke="none" stroke-width="0.5" stroke-linecap="butt" stroke-linejoin="miter"/><path d="M249.2607,219.54361c0,-0.55229 0.44772,-1 1,-1c0.55228,0 1,0.44771 1,1c0,0.55229 -0.44772,1 -1,1c-0.55228,0 -1,-0.44771 -1,-1z" fill="#9e6900" fill-rule="nonzero" stroke="none" stroke-width="0.5" stroke-linecap="butt" stroke-linejoin="miter"/><path d="M244.33134,219.54361c0,-0.55229 0.44772,-1 1,-1c0.55228,0 1,0.44771 1,1c0,0.55229 -0.44772,1 -1,1c-0.55228,0 -1,-0.44771 -1,-1z" fill="#9e6900" fill-rule="nonzero" stroke="none" stroke-width="0.5" stroke-linecap="butt" stroke-linejoin="miter"/><path d="M262.1318,224.74682c0,-0.55229 0.44772,-1 1,-1c0.55228,0 1,0.44771 1,1c0,0.55229 -0.44772,1 -1,1c-0.55228,0 -1,-0.44771 -1,-1z" fill="#9e6900" fill-rule="nonzero" stroke="none" stroke-width="0.5" stroke-linecap="butt" stroke-linejoin="miter"/><path d="M254.32699,226.11608c0,-0.55229 0.44772,-1 1,-1c0.55228,0 1,0.44771 1,1c0,0.55229 -0.44772,1 -1,1c-0.55228,0 -1,-0.44771 -1,-1z" fill="#9e6900" fill-rule="nonzero" stroke="none" stroke-width="0.5" stroke-linecap="butt" stroke-linejoin="miter"/><path d="M236.3896,207.76792c0,-0.55229 0.44772,-1 1,-1c0.55228,0 1,0.44771 1,1c0,0.55229 -0.44772,1 -1,1c-0.55228,0 -1,-0.44771 -1,-1z" fill="#9e6900" fill-rule="nonzero" stroke="none" stroke-width="0.5" stroke-linecap="butt" stroke-linejoin="miter"/><path d="M242.27745,213.51884c0,-0.55229 0.44772,-1 1,-1c0.55228,0 1,0.44771 1,1c0,0.55229 -0.44772,1 -1,1c-0.55228,0 -1,-0.44771 -1,-1z" fill="#9e6900" fill-rule="nonzero" stroke="none" stroke-width="0.5" stroke-linecap="butt" stroke-linejoin="miter"/><path d="M232.2818,198.86769c0,-0.55229 0.44772,-1 1,-1c0.55228,0 1,0.44771 1,1c0,0.55229 -0.44772,1 -1,1c-0.55228,0 -1,-0.44771 -1,-1z" fill="#9e6900" fill-rule="nonzero" stroke="none" stroke-width="0.5" stroke-linecap="butt" stroke-linejoin="miter"/><path d="M215.85061,215.70966c0,-0.55229 0.44772,-1 1,-1c0.55228,0 1,0.44771 1,1c0,0.55229 -0.44772,1 -1,1c-0.55228,0 -1,-0.44771 -1,-1z" fill="#9e6900" fill-rule="nonzero" stroke="none" stroke-width="0.5" stroke-linecap="butt" stroke-linejoin="miter"/><path d="M226.25703,212.42342c0,-0.55229 0.44772,-1 1,-1c0.55228,0 1,0.44771 1,1c0,0.55229 -0.44772,1 -1,1c-0.55228,0 -1,-0.44771 -1,-1z" fill="#9e6900" fill-rule="nonzero" stroke="none" stroke-width="0.5" stroke-linecap="butt" stroke-linejoin="miter"/><path d="M218.863,217.07893c0,-0.55229 0.44772,-1 1,-1c0.55228,0 1,0.44771 1,1c0,0.55229 -0.44772,1 -1,1c-0.55228,0 -1,-0.44771 -1,-1z" fill="#9e6900" fill-rule="nonzero" stroke="none" stroke-width="0.5" stroke-linecap="butt" stroke-linejoin="miter"/><path d="M211.60589,217.48971c0,-0.55229 0.44772,-1 1,-1c0.55228,0 1,0.44771 1,1c0,0.55229 -0.44772,1 -1,1c-0.55228,0 -1,-0.44771 -1,-1z" fill="#9e6900" fill-rule="nonzero" stroke="none" stroke-width="0.5" stroke-linecap="butt" stroke-linejoin="miter"/><path d="M221.32768,202.83856c0,-0.55229 0.44772,-1 1,-1c0.55228,0 1,0.44771 1,1c0,0.55229 -0.44772,1 -1,1c-0.55228,0 -1,-0.44771 -1,-1z" fill="#9e6900" fill-rule="nonzero" stroke="none" stroke-width="0.5" stroke-linecap="butt" stroke-linejoin="miter"/><path d="M225.5724,193.11677c0,-0.55229 0.44772,-1 1,-1c0.55228,0 1,0.44771 1,1c0,0.55229 -0.44772,1 -1,1c-0.55228,0 -1,-0.44771 -1,-1z" fill="#9e6900" fill-rule="nonzero" stroke="none" stroke-width="0.5" stroke-linecap="butt" stroke-linejoin="miter"/><path d="M218.31529,194.07526c0,-0.55229 0.44772,-1 1,-1c0.55228,0 1,0.44771 1,1c0,0.55229 -0.44772,1 -1,1c-0.55228,0 -1,-0.44771 -1,-1z" fill="#9e6900" fill-rule="nonzero" stroke="none" stroke-width="0.5" stroke-linecap="butt" stroke-linejoin="miter"/><path d="M213.11208,208.86333c0,-0.55229 0.44772,-1 1,-1c0.55228,0 1,0.44771 1,1c0,0.55229 -0.44772,1 -1,1c-0.55228,0 -1,-0.44771 -1,-1z" fill="#9e6900" fill-rule="nonzero" stroke="none" stroke-width="0.5" stroke-linecap="butt" stroke-linejoin="miter"/><path d="M231.18639,204.0709c0,-0.55229 0.44772,-1 1,-1c0.55228,0 1,0.44771 1,1c0,0.55229 -0.44772,1 -1,1c-0.55228,0 -1,-0.44771 -1,-1z" fill="#9e6900" fill-rule="nonzero" stroke="none" stroke-width="0.5" stroke-linecap="butt" stroke-linejoin="miter"/><path d="M228.72171,199.9631c0,-0.55229 0.44772,-1 1,-1c0.55228,0 1,0.44771 1,1c0,0.55229 -0.44772,1 -1,1c-0.55228,0 -1,-0.44771 -1,-1z" fill="#9e6900" fill-rule="nonzero" stroke="none" stroke-width="0.5" stroke-linecap="butt" stroke-linejoin="miter"/><path d="M234.3357,194.62296c0,-0.55229 0.44772,-1 1,-1c0.55228,0 1,0.44771 1,1c0,0.55229 -0.44772,1 -1,1c-0.55228,0 -1,-0.44771 -1,-1z" fill="#9e6900" fill-rule="nonzero" stroke="none" stroke-width="0.5" stroke-linecap="butt" stroke-linejoin="miter"/><path d="M230.50176,196.95072c0,-0.55229 0.44772,-1 1,-1c0.55228,0 1,0.44771 1,1c0,0.55229 -0.44772,1 -1,1c-0.55228,0 -1,-0.44771 -1,-1z" fill="#9e6900" fill-rule="nonzero" stroke="none" stroke-width="0.5" stroke-linecap="butt" stroke-linejoin="miter"/><path d="M240.90818,192.84292c0,-0.55229 0.44772,-1 1,-1c0.55228,0 1,0.44771 1,1c0,0.55229 -0.44772,1 -1,1c-0.55228,0 -1,-0.44771 -1,-1z" fill="#9e6900" fill-rule="nonzero" stroke="none" stroke-width="0.5" stroke-linecap="butt" stroke-linejoin="miter"/><path d="M235.15726,192.43214c0,-0.55229 0.44772,-1 1,-1c0.55228,0 1,0.44771 1,1c0,0.55229 -0.44772,1 -1,1c-0.55228,0 -1,-0.44771 -1,-1z" fill="#9e6900" fill-rule="nonzero" stroke="none" stroke-width="0.5" stroke-linecap="butt" stroke-linejoin="miter"/><path d="M245.70061,194.89682c0,-0.55229 0.44772,-1 1,-1c0.55228,0 1,0.44771 1,1c0,0.55229 -0.44772,1 -1,1c-0.55228,0 -1,-0.44771 -1,-1z" fill="#9e6900" fill-rule="nonzero" stroke="none" stroke-width="0.5" stroke-linecap="butt" stroke-linejoin="miter"/><path d="M249.80841,200.51081c0,-0.55229 0.44772,-1 1,-1c0.55228,0 1,0.44771 1,1c0,0.55229 -0.44772,1 -1,1c-0.55228,0 -1,-0.44771 -1,-1z" fill="#9e6900" fill-rule="nonzero" stroke="none" stroke-width="0.5" stroke-linecap="butt" stroke-linejoin="miter"/><path d="M252.13616,199.68925c0,-0.55229 0.44772,-1 1,-1c0.55228,0 1,0.44771 1,1c0,0.55229 -0.44772,1 -1,1c-0.55228,0 -1,-0.44771 -1,-1z" fill="#9e6900" fill-rule="nonzero" stroke="none" stroke-width="0.5" stroke-linecap="butt" stroke-linejoin="miter"/><path d="M253.23157,203.38627c0,-0.55229 0.44772,-1 1,-1c0.55228,0 1,0.44771 1,1c0,0.55229 -0.44772,1 -1,1c-0.55228,0 -1,-0.44771 -1,-1z" fill="#9e6900" fill-rule="nonzero" stroke="none" stroke-width="0.5" stroke-linecap="butt" stroke-linejoin="miter"/><path d="M262.40565,199.00462c0,-0.55229 0.44772,-1 1,-1c0.55228,0 1,0.44771 1,1c0,0.55229 -0.44772,1 -1,1c-0.55228,0 -1,-0.44771 -1,-1z" fill="#9e6900" fill-rule="nonzero" stroke="none" stroke-width="0.5" stroke-linecap="butt" stroke-linejoin="miter"/><path d="M256.38088,201.60622c0,-0.55229 0.44772,-1 1,-1c0.55228,0 1,0.44771 1,1c0,0.55229 -0.44772,1 -1,1c-0.55228,0 -1,-0.44771 -1,-1z" fill="#9e6900" fill-rule="nonzero" stroke="none" stroke-width="0.5" stroke-linecap="butt" stroke-linejoin="miter"/><path d="M222.97079,179.15026c0,-0.55229 0.44772,-1 1,-1c0.55228,0 1,0.44771 1,1c0,0.55229 -0.44772,1 -1,1c-0.55228,0 -1,-0.44771 -1,-1z" fill="#9e6900" fill-rule="nonzero" stroke="none" stroke-width="0.5" stroke-linecap="butt" stroke-linejoin="miter"/><path d="M226.12011,182.71035c0,-0.55229 0.44772,-1 1,-1c0.55228,0 1,0.44771 1,1c0,0.55229 -0.44772,1 -1,1c-0.55228,0 -1,-0.44771 -1,-1z" fill="#9e6900" fill-rule="nonzero" stroke="none" stroke-width="0.5" stroke-linecap="butt" stroke-linejoin="miter"/><path d="M224.20313,161.21287c0,-0.55229 0.44772,-1 1,-1c0.55228,0 1,0.44771 1,1c0,0.55229 -0.44772,1 -1,1c-0.55228,0 -1,-0.44771 -1,-1z" fill="#9e6900" fill-rule="nonzero" stroke="none" stroke-width="0.5" stroke-linecap="butt" stroke-linejoin="miter"/><path d="M218.72607,175.31631c0,-0.55229 0.44772,-1 1,-1c0.55228,0 1,0.44771 1,1c0,0.55229 -0.44772,1 -1,1c-0.55228,0 -1,-0.44771 -1,-1z" fill="#9e6900" fill-rule="nonzero" stroke="none" stroke-width="0.5" stroke-linecap="butt" stroke-linejoin="miter"/><path d="M224.61391,167.5115c0,-0.55229 0.44772,-1 1,-1c0.55228,0 1,0.44771 1,1c0,0.55229 -0.44772,1 -1,1c-0.55228,0 -1,-0.44771 -1,-1z" fill="#9e6900" fill-rule="nonzero" stroke="none" stroke-width="0.5" stroke-linecap="butt" stroke-linejoin="miter"/><path d="M219.27378,159.15898c0,-0.55229 0.44772,-1 1,-1c0.55228,0 1,0.44771 1,1c0,0.55229 -0.44772,1 -1,1c-0.55228,0 -1,-0.44771 -1,-1z" fill="#9e6900" fill-rule="nonzero" stroke="none" stroke-width="0.5" stroke-linecap="butt" stroke-linejoin="miter"/><path d="M223.38157,174.35783c0,-0.55229 0.44772,-1 1,-1c0.55228,0 1,0.44771 1,1c0,0.55229 -0.44772,1 -1,1c-0.55228,0 -1,-0.44771 -1,-1z" fill="#9e6900" fill-rule="nonzero" stroke="none" stroke-width="0.5" stroke-linecap="butt" stroke-linejoin="miter"/><path d="M217.49373,169.29154c0,-0.55229 0.44772,-1 1,-1c0.55228,0 1,0.44771 1,1c0,0.55229 -0.44772,1 -1,1c-0.55228,0 -1,-0.44771 -1,-1z" fill="#9e6900" fill-rule="nonzero" stroke="none" stroke-width="0.5" stroke-linecap="butt" stroke-linejoin="miter"/><path d="M228.17401,164.22526c0,-0.55229 0.44772,-1 1,-1c0.55228,0 1,0.44771 1,1c0,0.55229 -0.44772,1 -1,1c-0.55228,0 -1,-0.44771 -1,-1z" fill="#9e6900" fill-rule="nonzero" stroke="none" stroke-width="0.5" stroke-linecap="butt" stroke-linejoin="miter"/><path d="M246.52217,157.242c0,-0.55229 0.44772,-1 1,-1c0.55228,0 1,0.44771 1,1c0,0.55229 -0.44772,1 -1,1c-0.55228,0 -1,-0.44771 -1,-1z" fill="#9e6900" fill-rule="nonzero" stroke="none" stroke-width="0.5" stroke-linecap="butt" stroke-linejoin="miter"/><path d="M245.28983,162.58214c0,-0.55229 0.44772,-1 1,-1c0.55228,0 1,0.44771 1,1c0,0.55229 -0.44772,1 -1,1c-0.55228,0 -1,-0.44771 -1,-1z" fill="#9e6900" fill-rule="nonzero" stroke="none" stroke-width="0.5" stroke-linecap="butt" stroke-linejoin="miter"/><path d="M253.23157,161.3498c0,-0.55229 0.44772,-1 1,-1c0.55228,0 1,0.44771 1,1c0,0.55229 -0.44772,1 -1,1c-0.55228,0 -1,-0.44771 -1,-1z" fill="#9e6900" fill-rule="nonzero" stroke="none" stroke-width="0.5" stroke-linecap="butt" stroke-linejoin="miter"/><path d="M248.43914,152.44957c0,-0.55229 0.44772,-1 1,-1c0.55228,0 1,0.44771 1,1c0,0.55229 -0.44772,1 -1,1c-0.55228,0 -1,-0.44771 -1,-1z" fill="#9e6900" fill-rule="nonzero" stroke="none" stroke-width="0.5" stroke-linecap="butt" stroke-linejoin="miter"/><path d="M225.5724,148.39934c0,-0.55229 0.44772,-1 1,-1c0.55228,0 1,0.44771 1,1c0,0.55229 -0.44772,1 -1,1c-0.55228,0 -1,-0.44771 -1,-1z" fill="#9e6900" fill-rule="nonzero" stroke="none" stroke-width="0.5" stroke-linecap="butt" stroke-linejoin="miter"/><path d="M223.92928,155.3826c0,-0.55229 0.44772,-1 1,-1c0.55228,0 1,0.44771 1,1c0,0.55229 -0.44772,1 -1,1c-0.55228,0 -1,-0.44771 -1,-1z" fill="#9e6900" fill-rule="nonzero" stroke="none" stroke-width="0.5" stroke-linecap="butt" stroke-linejoin="miter"/><path d="M221.87538,139.22526c0,-0.55229 0.44772,-1 1,-1c0.55228,0 1,0.44771 1,1c0,0.55229 -0.44772,1 -1,1c-0.55228,0 -1,-0.44771 -1,-1z" fill="#9e6900" fill-rule="nonzero" stroke="none" stroke-width="0.5" stroke-linecap="butt" stroke-linejoin="miter"/><path d="M222.42309,144.97618c0,-0.55229 0.44772,-1 1,-1c0.55228,0 1,0.44771 1,1c0,0.55229 -0.44772,1 -1,1c-0.55228,0 -1,-0.44771 -1,-1z" fill="#9e6900" fill-rule="nonzero" stroke="none" stroke-width="0.5" stroke-linecap="butt" stroke-linejoin="miter"/><path d="M226.25703,143.46998c0,-0.55229 0.44772,-1 1,-1c0.55228,0 1,0.44771 1,1c0,0.55229 -0.44772,1 -1,1c-0.55228,0 -1,-0.44771 -1,-1z" fill="#9e6900" fill-rule="nonzero" stroke="none" stroke-width="0.5" stroke-linecap="butt" stroke-linejoin="miter"/><path d="M232.55566,145.93466c0,-0.55229 0.44772,-1 1,-1c0.55228,0 1,0.44771 1,1c0,0.55229 -0.44772,1 -1,1c-0.55228,0 -1,-0.44771 -1,-1z" fill="#9e6900" fill-rule="nonzero" stroke="none" stroke-width="0.5" stroke-linecap="butt" stroke-linejoin="miter"/><path d="M244.19442,144.70232c0,-0.55229 0.44772,-1 1,-1c0.55228,0 1,0.44771 1,1c0,0.55229 -0.44772,1 -1,1c-0.55228,0 -1,-0.44771 -1,-1z" fill="#9e6900" fill-rule="nonzero" stroke="none" stroke-width="0.5" stroke-linecap="butt" stroke-linejoin="miter"/><path d="M240.22355,147.57778c0,-0.55229 0.44772,-1 1,-1c0.55228,0 1,0.44771 1,1c0,0.55229 -0.44772,1 -1,1c-0.55228,0 -1,-0.44771 -1,-1z" fill="#9e6900" fill-rule="nonzero" stroke="none" stroke-width="0.5" stroke-linecap="butt" stroke-linejoin="miter"/><path d="M255.28547,139.08833c0,-0.55229 0.44772,-1 1,-1c0.55228,0 1,0.44771 1,1c0,0.55229 -0.44772,1 -1,1c-0.55228,0 -1,-0.44771 -1,-1z" fill="#9e6900" fill-rule="nonzero" stroke="none" stroke-width="0.5" stroke-linecap="butt" stroke-linejoin="miter"/><path d="M248.98685,146.75622c0,-0.55229 0.44772,-1 1,-1c0.55228,0 1,0.44771 1,1c0,0.55229 -0.44772,1 -1,1c-0.55228,0 -1,-0.44771 -1,-1z" fill="#9e6900" fill-rule="nonzero" stroke="none" stroke-width="0.5" stroke-linecap="butt" stroke-linejoin="miter"/><path d="M261.66712,144.70232c0,1 -0.96436,1 -0.96436,1l-1.11629,-0.00193c-3.98352,-0.50943 -7.67982,-0.54577 -11.69217,-0.54577c-8.78355,0 -17.23561,2.85026 -26.01306,2.87546c0,0 -0.96436,0 -0.96436,-1c0,-1 0.96436,-1 0.96436,-1c8.77272,0.02873 17.226,-2.87546 26.01306,-2.87546c4.0422,0 7.79763,0.0216 11.81201,0.54964l0.99644,-0.00194c0,0 0.96436,0 0.96436,1z" fill="#05cd00" fill-rule="nonzero" stroke="none" stroke-width="0.5" stroke-linecap="butt" stroke-linejoin="miter"/><path d="M260.38877,132.07361c0.98995,-0.14142 1.13137,0.84853 1.13137,0.84853l0.14697,1.0999c-0.0133,1.39648 -0.30304,3.02018 -0.85923,4.44215c0.34132,-0.46953 0.67223,-1.00219 1.0994,-1.60022l0.12606,-0.65197c0,0 0.27472,-0.96152 1.23624,-0.6868c0.96152,0.27472 0.6868,1.23624 0.6868,1.23624l-0.42164,1.26501c-1.14742,1.60639 -1.83946,2.82077 -3.36131,3.68987c-0.00763,0.81891 -0.50842,1.46689 0.20693,1.17217l-0.28863,1.4452l0.04056,0.53936c-0.0462,-0.01254 -0.09355,-0.02321 -0.14179,-0.03247l-0.00803,0.04019c0,0 -0.21108,0 -0.43929,-0.09698c-0.43041,-0.04048 -0.86403,-0.07581 -1.13195,-0.37814c-0.13695,-0.15454 -0.22219,-0.31851 -0.27212,-0.48866c-0.09359,-0.00518 -0.15362,-0.01851 -0.15362,-0.01851l-1.17933,-0.26357c-4.708,-0.52341 -9.00443,0.73273 -13.62416,0.68212c-2.16499,0.8324 -4.63256,1.14153 -6.91564,1.37934c-1.99467,0.20777 -3.86917,1.28184 -5.89842,1.50729c-2.84117,0.31567 -5.50489,-0.25023 -8.37106,0.39184c0,0 -0.97618,0.21693 -1.19311,-0.75925c-0.05197,-0.23388 -0.03546,-0.42418 0.0197,-0.57835c-0.18044,-0.27776 -0.18044,-0.59707 -0.18044,-0.59707c0,-0.56951 0.00388,-1.17821 -0.00024,-1.80235c-2.90704,-1.99364 -5.50963,-4.47106 -7.831,-7.12401l-0.22839,-0.22525c0,0 -0.70711,-0.70711 0,-1.41421c0.70711,-0.70711 1.41422,0 1.41422,0l0.31932,0.32245c0.97485,1.11414 1.99846,2.19541 3.0752,3.21863c-0.68591,-2.09738 -0.71623,-4.29097 -0.71998,-6.80485l-0.20233,-0.31324c0,0 -0.37139,-0.92848 0.55708,-1.29987c0.92847,-0.37139 1.29987,0.55709 1.29987,0.55709l0.34538,1.05603c-0.00536,3.25002 -0.0594,5.88824 1.78651,8.52497c-0.05235,-0.41565 -0.11924,-0.81736 -0.20463,-1.19719c-0.33049,-1.46994 -0.99822,-1.92105 -0.84334,-3.53618v-1.05306c0,-0.55229 0.44772,-1 1,-1c0.31149,0 0.58971,0.14241 0.77311,0.36568l0.57754,0.69304c2.88743,1.71013 5.59103,3.37093 8.14744,5.57195c-0.46306,-2.98585 -1.89149,-4.77792 -3.38898,-7.47278l-0.33663,-0.43335c0,0 -0.6,-0.8 0.2,-1.4c0.8,-0.6 1.4,0.2 1.4,0.2l0.48494,0.66206c1.16721,2.10146 2.28702,3.76155 3.00474,5.75954c0.4479,-1.98648 1.0584,-3.96822 2.20349,-5.5052l1.19158,-0.55093c0,0 0.91915,-0.39391 1.31306,0.52523c0.39392,0.91914 -0.52523,1.31306 -0.52523,1.31306l-0.72538,0.27063c-1.01936,1.5514 -1.46914,3.85947 -1.83856,5.8897c1.38396,-0.92808 2.35935,-2.04435 3.65375,-3.13109l0.62352,-0.75464c0,0 0.64019,-0.76823 1.40841,-0.12804c0.76822,0.64019 0.12804,1.40841 0.12804,1.40841l-0.74574,0.88849c-1.32378,1.09436 -2.37605,2.24903 -3.74775,3.2271c0.78144,-0.16491 1.60021,-0.24031 2.16377,-0.27717c3.14957,-0.20604 5.56403,-0.85091 8.52145,-0.49524c0.17735,-0.27937 0.48945,-0.46478 0.84486,-0.46478h1.23234v0.42978c0.03749,-0.00382 0.07488,-0.00758 0.11217,-0.0113l0.11466,-0.21304c0.05,0.0621 0.10001,0.1242 0.15001,0.1863c0.00667,-0.0007 0.01333,-0.00139 0.02,-0.00208l0.04746,-0.06646l0.07466,0.05333c0.18601,-0.02061 0.37071,-0.04424 0.55563,-0.07592c-0.04809,-0.07427 -0.07144,-0.1268 -0.07144,-0.1268c-1.44274,-3.24729 -2.6663,-6.07459 -5.26007,-8.58912l-0.28414,-0.28399c0,0 -0.70711,-0.70711 0,-1.41422c0.70711,-0.70711 1.41422,0 1.41422,0l0.26357,0.26372c2.41269,2.34872 3.75813,4.93115 5.08447,7.85082c0.1644,-1.56907 0.00193,-2.92623 1.65719,-4.34171l0.07,-0.07581c0,0 0.7071,-0.70711 1.41421,0c0.70711,0.70711 0,1.41421 0,1.41421l-0.20385,0.19804c-1.18895,0.95544 -1.09399,2.23389 -1.17346,3.58453c1.73679,-1.57229 3.07103,-3.89668 5.17086,-4.96212l0.30574,-0.81531c0.13612,-0.39052 0.5076,-0.67074 0.94452,-0.67074c0.43692,0 0.80841,0.28021 0.94453,0.67074l0.40258,1.07355l-0.01941,0.00728c0.0186,0.03451 0.03662,0.06938 0.05404,0.10462c0.46092,0.93293 0.10389,2.45683 0.16403,3.46332c0.00907,0.1518 0.0258,0.29905 0.04883,0.44255c0.47255,-1.21109 0.70443,-2.7454 0.69164,-3.80358l-0.12687,-0.81706c0,0 -0.14143,-0.98995 0.84852,-1.13137z" fill="#05cd00" fill-rule="nonzero" stroke="none" stroke-width="0.5" stroke-linecap="butt" stroke-linejoin="miter"/><path d="M221.32768,164.00897c0,-0.55229 0.44772,-1 1,-1c0.55228,0 1,0.44771 1,1c0,0.55229 -0.44772,1 -1,1c-0.55228,0 -1,-0.44771 -1,-1z" fill="#bfbfbf" fill-rule="nonzero" stroke="none" stroke-width="0.5" stroke-linecap="butt" stroke-linejoin="miter"/><path d="M250.90382,156.06723c0,-0.55229 0.44772,-1 1,-1c0.55228,0 1,0.44771 1,1c0,0.55229 -0.44772,1 -1,1c-0.55228,0 -1,-0.44771 -1,-1z" fill="#bfbfbf" fill-rule="nonzero" stroke="none" stroke-width="0.5" stroke-linecap="butt" stroke-linejoin="miter"/><path d="M242.96208,150.59017c0,-0.55229 0.44772,-1 1,-1c0.55228,0 1,0.44771 1,1c0,0.55229 -0.44772,1 -1,1c-0.55228,0 -1,-0.44771 -1,-1z" fill="#bfbfbf" fill-rule="nonzero" stroke="none" stroke-width="0.5" stroke-linecap="butt" stroke-linejoin="miter"/><path d="M247.75451,161.81815c0,-0.55229 0.44772,-1 1,-1c0.55228,0 1,0.44771 1,1c0,0.55229 -0.44772,1 -1,1c-0.55228,0 -1,-0.44771 -1,-1z" fill="#bfbfbf" fill-rule="nonzero" stroke="none" stroke-width="0.5" stroke-linecap="butt" stroke-linejoin="miter"/><path d="M250.35611,223.29819c0,-0.55229 0.44772,-1 1,-1c0.55228,0 1,0.44771 1,1c0,0.55229 -0.44772,1 -1,1c-0.55228,0 -1,-0.44771 -1,-1z" fill="#bfbfbf" fill-rule="nonzero" stroke="none" stroke-width="0.5" stroke-linecap="butt" stroke-linejoin="miter"/><path d="M213.52286,221.92892c0,-0.55229 0.44772,-1 1,-1c0.55228,0 1,0.44771 1,1c0,0.55229 -0.44772,1 -1,1c-0.55228,0 -1,-0.44771 -1,-1z" fill="#bfbfbf" fill-rule="nonzero" stroke="none" stroke-width="0.5" stroke-linecap="butt" stroke-linejoin="miter"/><path d="M224.47699,206.45622c0,-0.55229 0.44772,-1 1,-1c0.55228,0 1,0.44771 1,1c0,0.55229 -0.44772,1 -1,1c-0.55228,0 -1,-0.44771 -1,-1z" fill="#bfbfbf" fill-rule="nonzero" stroke="none" stroke-width="0.5" stroke-linecap="butt" stroke-linejoin="miter"/><path d="M203.11644,205.49773c0,-0.55229 0.44772,-1 1,-1c0.55228,0 1,0.44771 1,1c0,0.55229 -0.44772,1 -1,1c-0.55228,0 -1,-0.44771 -1,-1z" fill="#bfbfbf" fill-rule="nonzero" stroke="none" stroke-width="0.5" stroke-linecap="butt" stroke-linejoin="miter"/><path d="M259.25634,201.11608c0,-0.55229 0.44772,-1 1,-1c0.55228,0 1,0.44771 1,1c0,0.55229 -0.44772,1 -1,1c-0.55228,0 -1,-0.44771 -1,-1z" fill="#bfbfbf" fill-rule="nonzero" stroke="none" stroke-width="0.5" stroke-linecap="butt" stroke-linejoin="miter"/><path d="M191.47681,189.76098c0.94869,-0.31623 1.26491,0.63245 1.26491,0.63245l0.21959,0.69057c0.84394,1.68788 2.56365,4.67258 4.36274,6.4107c0.02476,0.02354 0.04948,0.04717 0.07417,0.0709c0.54613,0.5165 1.09855,0.91518 1.63506,1.12514c0,0 0.86452,0.37051 0.55735,1.2313c0.11574,0.13206 0.23201,0.26499 0.34901,0.39861c0,0 0.6585,0.75258 -0.09407,1.41108c-0.75257,0.6585 -1.41109,-0.09407 -1.41109,-0.09407c-2.20793,-2.52534 -4.07744,-5.01214 -7.59994,-4.99865h-0.27386c0,0 -1,0 -1,-1c0,-1 1,-1 1,-1h0.27386c0.71344,0.00236 1.37092,0.08073 1.98373,0.22388c-0.66283,-1.03596 -1.22718,-2.04719 -1.64581,-2.88447l-0.32811,-0.95254c0,0 -0.31623,-0.94868 0.63245,-1.26491z" fill="#05cd00" fill-rule="nonzero" stroke="none" stroke-width="0.5" stroke-linecap="butt" stroke-linejoin="miter"/><path d="M203.30537,181.80244c0.5547,0.83205 -0.27735,1.38675 -0.27735,1.38675l-0.46934,0.31005c-1.72062,0.94447 -1.13013,2.20645 -1.13926,4.06112c-0.01276,2.59373 -0.27534,5.14043 -0.27385,7.80481c0,0 0,1 -1,1c-1,0 -1,-1 -1,-1c0.00228,-3.80928 -1.20793,-11.46876 2.42083,-13.60242l0.35222,-0.23766c0,0 0.83205,-0.5547 1.38675,0.27735z" fill="#05cd00" fill-rule="nonzero" stroke="none" stroke-width="0.5" stroke-linecap="butt" stroke-linejoin="miter"/><path d="M201.9605,183.026c-0.62412,-0.2124 -0.62411,-0.94271 -0.62411,-0.94271c0.0346,-2.19608 1.89292,-6.26356 4.97366,-4.39493c3.63795,2.20661 -2.65135,6.21833 -4.34954,5.33764z" fill="#ff0000" fill-rule="nonzero" stroke="none" stroke-width="0.5" stroke-linecap="butt" stroke-linejoin="miter"/><path d="M212.74281,173.29613c-0.25,0 -0.25,-0.25 -0.25,-0.25c0,-0.22821 0,-0.73028 0,-0.95849c0,0 0,-0.25 0.25,-0.25c0.25,0 0.25,0.25 0.25,0.25c0,0.22821 0,0.45643 0,0.68464v0.27385c0,0 0,0.25 -0.25,0.25z" fill="#f300e2" fill-rule="nonzero" stroke="none" stroke-width="0.5" stroke-linecap="butt" stroke-linejoin="miter"/><path d="M214.52286,173.43306c-0.25,0 -0.25,-0.25 -0.25,-0.25v-0.13693c0,-0.45424 -0.03458,-0.79254 0.16332,-1.20722c0,0 0.11181,-0.22361 0.33541,-0.11181c0.22361,0.11181 0.11181,0.33542 0.11181,0.33542c-0.17142,0.32097 -0.11054,0.62193 -0.11054,0.98361v0.13693c0,0 0,0.25 -0.25,0.25z" fill="#f300e2" fill-rule="nonzero" stroke="none" stroke-width="0.5" stroke-linecap="butt" stroke-linejoin="miter"/><path d="M216.46369,172.77228c0,-0.13807 0.11193,-0.25 0.25,-0.25c0.06123,0 0.11731,0.02201 0.16078,0.05855c0,-0.0844 0,-0.17103 0,-0.21933c0,0 0,-0.25 0.25,-0.25c0.25,0 0.25,0.25 0.25,0.25c0,0.09128 0,0.18257 0,0.27385v0.13693c0,0 0,0.25 -0.25,0.25c-0.11136,0 -0.17312,-0.04961 -0.20736,-0.10463c-0.04535,0.06334 -0.11956,0.10463 -0.20341,0.10463c-0.13807,0 -0.25,-0.11193 -0.25,-0.25z" fill="#f300e2" fill-rule="nonzero" stroke="none" stroke-width="0.5" stroke-linecap="butt" stroke-linejoin="miter"/><path d="M219.58914,173.29613c-0.25,0 -0.25,-0.25 -0.25,-0.25c0,-0.31949 0,-0.91284 0,-1.23234c0,0 0,-0.25 0.25,-0.25c0.25,0 0.25,0.25 0.25,0.25c0,0.31949 0,0.63899 0,0.95848v0.27385c0,0 0,0.25 -0.25,0.25z" fill="#f300e2" fill-rule="nonzero" stroke="none" stroke-width="0.5" stroke-linecap="butt" stroke-linejoin="miter"/><path d="M221.23226,173.02228c-0.25,0 -0.25,-0.25 -0.25,-0.25l0.00669,-0.21642c-0.2229,-0.4458 -0.14361,-0.93409 -0.14361,-1.4267c0,0 0,-0.25 0.25,-0.25c0.25,0 0.25,0.25 0.25,0.25c0,0.46156 -0.07693,0.89748 0.13024,1.31182l0.00669,0.3313c0,0 0,0.25 -0.25,0.25z" fill="#f300e2" fill-rule="nonzero" stroke="none" stroke-width="0.5" stroke-linecap="butt" stroke-linejoin="miter"/><path d="M212.60764,161.88399c0.20801,0.13868 0.06933,0.34669 0.06933,0.34669l-0.25728,0.38194c-0.16839,0.46814 -0.60689,0.52652 -0.39819,0.90652c0,0 0.07905,0.23717 -0.15812,0.31623c-0.23717,0.07906 -0.31622,-0.15811 -0.31622,-0.15811c-0.10461,-0.43846 0.29345,-0.85268 0.42337,-1.28431l0.29042,-0.43962c0,0 0.13868,-0.20802 0.34669,-0.06934z" fill="#f300e2" fill-rule="nonzero" stroke="none" stroke-width="0.5" stroke-linecap="butt" stroke-linejoin="miter"/><path d="M214.21769,163.26371c0.06063,0.24254 -0.1819,0.30317 -0.1819,0.30317c-0.16169,0.04042 -0.38601,0.0965 -0.54771,0.13692c0,0 -0.24254,0.06064 -0.30317,-0.1819c-0.06063,-0.24254 0.1819,-0.30317 0.1819,-0.30317c0.16169,-0.04042 0.32338,-0.08084 0.48507,-0.12127l0.06264,-0.01566c0,0 0.24254,-0.06063 0.30317,0.1819z" fill="#f300e2" fill-rule="nonzero" stroke="none" stroke-width="0.5" stroke-linecap="butt" stroke-linejoin="miter"/><path d="M215.34442,162.93741c0.25,0 0.25,0.25 0.25,0.25v0.27385c0,0.5537 0.08817,0.73933 -0.41205,1.04516c0,0 -0.22361,0.11181 -0.33541,-0.1118c-0.11181,-0.2236 0.11181,-0.33541 0.11181,-0.33541c0.29413,-0.07609 0.13566,-0.32863 0.13566,-0.59796v-0.27385c0,0 0,-0.25 0.25,-0.25z" fill="#f300e2" fill-rule="nonzero" stroke="none" stroke-width="0.5" stroke-linecap="butt" stroke-linejoin="miter"/><path d="M217.71202,164.79068c0.17678,0.17677 0,0.35356 0,0.35356l-0.2019,0.18375c-0.12941,0.05582 -0.24316,0.16957 -0.29898,0.29898c0,0 -0.11181,0.22361 -0.33541,0.1118c-0.22361,-0.11181 -0.1118,-0.33541 -0.1118,-0.33541c0.11744,-0.21655 0.30603,-0.40513 0.52258,-0.52258l0.07196,-0.0901c0,0 0.17678,-0.17677 0.35355,0z" fill="#f300e2" fill-rule="nonzero" stroke="none" stroke-width="0.5" stroke-linecap="butt" stroke-linejoin="miter"/><path d="M220.1767,164.92761c0.17678,0.17677 0,0.35355 0,0.35355l-0.13693,0.13693c-0.43027,0.41316 -0.44373,0.71545 -1.02346,1.00531c0,0 -0.22361,0.1118 -0.33541,-0.11181c-0.11181,-0.2236 0.11181,-0.33541 0.11181,-0.33541c0.52188,-0.26094 0.48464,-0.4903 0.89351,-0.91165l0.13693,-0.13692c0,0 0.17678,-0.17677 0.35355,0z" fill="#f300e2" fill-rule="nonzero" stroke="none" stroke-width="0.5" stroke-linecap="butt" stroke-linejoin="miter"/><path d="M221.48099,166.66083c0.22361,0.11181 0.11181,0.33541 0.11181,0.33541l-0.19673,0.35091c-0.16517,0.06175 -0.33035,0.12349 -0.49553,0.18524c0,0 -0.23717,0.07905 -0.31622,-0.15812c-0.07905,-0.23717 0.15812,-0.31623 0.15812,-0.31623c0.10868,-0.02954 0.21735,-0.05908 0.32603,-0.08862l0.07712,-0.1968c0,0 0.11181,-0.2236 0.33541,-0.1118z" fill="#f300e2" fill-rule="nonzero" stroke="none" stroke-width="0.5" stroke-linecap="butt" stroke-linejoin="miter"/><path d="M280.81354,166.77249c0.05755,0.00569 0.2318,0.04015 0.2318,0.24887c0,0.25 -0.25,0.25 -0.25,0.25l-0.36054,-0.13819c-0.2647,-0.5294 -0.48744,-1.01984 -0.91165,-1.44122c0,0 -0.17678,-0.17678 0,-0.35356c0.17678,-0.17677 0.35355,0 0.35355,0c0.42488,0.4274 0.6739,0.90828 0.93684,1.4341z" fill="#f300e2" fill-rule="nonzero" stroke="none" stroke-width="0.5" stroke-linecap="butt" stroke-linejoin="miter"/><path d="M282.02767,166.72365c-0.25,0 -0.25,-0.25 -0.25,-0.25l0.01999,-0.03898c-0.1182,-0.28759 -0.15406,-0.60859 -0.15691,-0.91951c0,0 0,-0.25 0.25,-0.25c0.25,0 0.25,0.25 0.25,0.25c-0.00274,0.24432 0.01744,0.50046 0.11694,0.72361l0.01999,0.23487c0,0 0,0.25 -0.25,0.25z" fill="#f300e2" fill-rule="nonzero" stroke="none" stroke-width="0.5" stroke-linecap="butt" stroke-linejoin="miter"/><path d="M285.04181,165.86011c-0.20801,0.13868 -0.34669,-0.06934 -0.34669,-0.06934l-0.24262,-0.37267c-0.24442,-0.16022 -0.47737,-0.34167 -0.68463,-0.54771c0,0 -0.17678,-0.17678 0,-0.35355c0.17678,-0.17677 0.35355,0 0.35355,0c0.20596,0.20735 0.44261,0.38389 0.68463,0.54771l0.30509,0.44888c0,0 0.13868,0.20801 -0.06934,0.34669z" fill="#f300e2" fill-rule="nonzero" stroke="none" stroke-width="0.5" stroke-linecap="butt" stroke-linejoin="miter"/><path d="M286.34081,164.27866c0.03993,-0.05662 0.14567,-0.16829 0.31724,-0.08251c0.22361,0.11181 0.11181,0.33541 0.11181,0.33541c-0.03685,0.06899 -0.07369,0.13797 -0.11054,0.20696v0.22894c0,0.13807 -0.11193,0.25 -0.25,0.25c-0.13807,0 -0.25,-0.11193 -0.25,-0.25v-0.26892c-0.02139,-0.00823 -0.04257,-0.0178 -0.06342,-0.02841c-0.08087,-0.01726 -0.13721,-0.0736 -0.13721,-0.0736l0.00574,-0.00909c-0.03051,-0.02279 -0.05922,-0.04674 -0.08544,-0.07061l0.21663,-0.13693l0.13693,-0.21662c0.02508,0.02675 0.0482,0.05561 0.06934,0.08624l0.01036,-0.00654c0,0 0.01308,0.01308 0.02857,0.03568z" fill="#f300e2" fill-rule="nonzero" stroke="none" stroke-width="0.5" stroke-linecap="butt" stroke-linejoin="miter"/><path d="M288.36432,164.17349c0.06996,0.01143 0.21197,0.05784 0.21197,0.24626c0,0.25 -0.25,0.25 -0.25,0.25l-0.38328,-0.20742c-0.05737,-0.4519 -0.38932,-0.5134 -0.41443,-1.00107c0,0 0,-0.25 0.25,-0.25c0.25,0 0.25,0.25 0.25,0.25c-0.02855,0.26732 0.20423,0.44752 0.33573,0.71222z" fill="#f300e2" fill-rule="nonzero" stroke="none" stroke-width="0.5" stroke-linecap="butt" stroke-linejoin="miter"/><path d="M289.91917,163.29922c-0.11181,0.2236 -0.33541,0.11181 -0.33541,0.11181l-0.27385,-0.13693c-0.24869,-0.15205 -0.39203,-0.4805 -0.41205,-0.77131c0,0 0,-0.25 0.25,-0.25c0.25,0 0.25,0.25 0.25,0.25c-0.01551,0.11608 0.02228,0.29477 0.13566,0.3241l0.27385,0.13692c0,0 0.22361,0.11181 0.1118,0.33541z" fill="#f300e2" fill-rule="nonzero" stroke="none" stroke-width="0.5" stroke-linecap="butt" stroke-linejoin="miter"/><path d="M280.16458,174.01794l-0.42798,-0.09238c0.11931,-0.35628 0.84006,-1.30765 0.80873,-1.42713c0,0 0,-0.25 0.25,-0.25c0.25,0 0.25,0.25 0.25,0.25c-0.04234,0.45959 -0.44337,0.82024 -0.69729,1.27819c0.06326,0.14402 -0.06057,0.26785 -0.06057,0.26785l-0.05832,-0.01259c-0.00636,0.0171 -0.01243,0.03437 -0.01821,0.05179z" fill="#f300e2" fill-rule="nonzero" stroke="none" stroke-width="0.5" stroke-linecap="butt" stroke-linejoin="miter"/><path d="M282.43845,173.70691c-0.25,0 -0.25,-0.25 -0.25,-0.25c0,-0.13692 0,-0.54771 0,-0.68463c0,0 0,-0.25 0.25,-0.25c0.25,0 0.25,0.25 0.25,0.25c0,0.13692 0,0.27385 0,0.41078v0.27385c0,0 0,0.25 -0.25,0.25z" fill="#f300e2" fill-rule="nonzero" stroke="none" stroke-width="0.5" stroke-linecap="butt" stroke-linejoin="miter"/><path d="M284.08157,174.25462c-0.25,0 -0.25,-0.25 -0.25,-0.25c0,-0.22821 0,-0.73028 0,-0.95849c0,0 0,-0.25 0.25,-0.25c0.25,0 0.25,0.25 0.25,0.25c0,0.22821 0,0.45642 0,0.68463v0.27385c0,0 0,0.25 -0.25,0.25z" fill="#f300e2" fill-rule="nonzero" stroke="none" stroke-width="0.5" stroke-linecap="butt" stroke-linejoin="miter"/><path d="M285.86162,174.93925c-0.25,0 -0.25,-0.25 -0.25,-0.25l0.00669,-0.33129c0.08767,-0.18372 0.1765,-0.36689 0.26717,-0.54915c0,-0.17101 0,-0.50495 0,-0.62575c0,0 0,-0.25 0.25,-0.25c0.25,0 0.25,0.25 0.25,0.25c0,0.13692 0,0.27386 0,0.41078v0.23185c0.00421,0.03716 -0.00075,0.07209 -0.00746,0.09925c-0.00615,0.02736 -0.01738,0.06093 -0.03786,0.09234c-0.07665,0.15275 -0.15471,0.30481 -0.23522,0.45555l0.00669,0.21641c0,0 0,0.25 -0.25,0.25z" fill="#f300e2" fill-rule="nonzero" stroke="none" stroke-width="0.5" stroke-linecap="butt" stroke-linejoin="miter"/><path d="M288.18937,174.39154c-0.25,0 -0.25,-0.25 -0.25,-0.25v-0.27385c0.00218,-0.30432 0.05549,-0.61125 0.14975,-0.90061c0,0 0.07906,-0.23717 0.31623,-0.15812c0.23717,0.07906 0.15812,0.31623 0.15812,0.31623c-0.0813,0.23739 -0.12628,0.49157 -0.1241,0.7425v0.27385c0,0 0,0.25 -0.25,0.25z" fill="#f300e2" fill-rule="nonzero" stroke="none" stroke-width="0.5" stroke-linecap="butt" stroke-linejoin="miter"/></g></g></svg>